<svg xmlns="http://www.w3.org/2000/svg" xmlns:xlink="http://www.w3.org/1999/xlink" viewBox="188 2196 51 51">
  <defs>
    <style>
      .cls-1 {
        clip-path: url(#clip-icon_industries_19);
      }

      .cls-2, .cls-3 {
        fill: none;
        stroke: #12213d;
        stroke-miterlimit: 10;
        stroke-width: 2px;
      }

      .cls-2 {
        stroke-linejoin: round;
      }

      .cls-4 {
        fill: #fff;
      }
    </style>
    <clipPath id="clip-icon_industries_19">
      <rect x="188" y="2196" width="51" height="51"/>
    </clipPath>
  </defs>
  <g id="icon_industries_19" class="cls-1">
    <rect class="cls-4" x="188" y="2196" width="51" height="51"/>
    <g id="Group_116" data-name="Group 116" transform="translate(194.586 2196.257)">
      <path id="Path_135" data-name="Path 135" class="cls-2" d="M32.4,33.265H5.414V27.038A1.038,1.038,0,0,1,6.452,26H31.361A1.038,1.038,0,0,1,32.4,27.038Z" transform="translate(0.152 0.947)"/>
      <path id="Path_136" data-name="Path 136" class="cls-2" d="M32.4,33v7.265H5.414V33" transform="translate(0.152 1.212)"/>
      <path id="Path_137" data-name="Path 137" class="cls-2" d="M32.4,40v6.227a1.038,1.038,0,0,1-1.038,1.038H6.452a1.038,1.038,0,0,1-1.038-1.038V40" transform="translate(0.152 1.478)"/>
      <line id="Line_41" data-name="Line 41" class="cls-2" x2="2.076" transform="translate(7.642 31.099)"/>
      <line id="Line_42" data-name="Line 42" class="cls-2" x2="2.076" transform="translate(7.642 38.364)"/>
      <line id="Line_43" data-name="Line 43" class="cls-2" x2="2.076" transform="translate(7.642 45.629)"/>
      <path id="Path_138" data-name="Path 138" class="cls-3" d="M32.793,7H26.566l-4.152,4.152V24.644" transform="translate(0.796 0.227)"/>
      <path id="Path_139" data-name="Path 139" class="cls-3" d="M29.414,10.227l3.114-3.114L29.414,4" transform="translate(1.061 0.114)"/>
      <path id="Path_140" data-name="Path 140" class="cls-3" d="M32.414,18.227l3.114-3.114L32.414,12" transform="translate(1.175 0.417)"/>
      <path id="Path_141" data-name="Path 141" class="cls-2" d="M21.642,4.114,18.528,1,15.414,4.114" transform="translate(0.53)"/>
      <line id="Line_44" data-name="Line 44" class="cls-2" y2="23.871" transform="translate(19.058 1)"/>
      <path id="Path_142" data-name="Path 142" class="cls-3" d="M26.414,24.341V18.114L29.528,15h6.227" transform="translate(0.947 0.53)"/>
      <path id="Path_143" data-name="Path 143" class="cls-3" d="M4.414,7h6.227l4.152,4.152V24.644" transform="translate(0.114 0.227)"/>
      <path id="Path_144" data-name="Path 144" class="cls-3" d="M7.528,10.227,4.414,7.114,7.528,4" transform="translate(0.114 0.114)"/>
      <path id="Path_145" data-name="Path 145" class="cls-3" d="M4.528,18.227,1.414,15.114,4.528,12" transform="translate(0 0.417)"/>
      <path id="Path_146" data-name="Path 146" class="cls-3" d="M10.755,24.341V18.114L7.642,15H1.414" transform="translate(0 0.53)"/>
    </g>
  </g>
</svg>
