<svg xmlns="http://www.w3.org/2000/svg" xmlns:xlink="http://www.w3.org/1999/xlink" viewBox="244 2196 51 51">
  <defs>
    <style>
      .cls-1 {
        clip-path: url(#clip-icon_industries_110);
      }

      .cls-2 {
        fill: none;
        stroke: #12213d;
        stroke-miterlimit: 10;
        stroke-width: 2px;
      }

      .cls-3 {
        fill: #fff;
      }
    </style>
    <clipPath id="clip-icon_industries_110">
      <rect x="244" y="2196" width="51" height="51"/>
    </clipPath>
  </defs>
  <g id="icon_industries_110" class="cls-1">
    <rect class="cls-3" x="244" y="2196" width="51" height="51"/>
    <g id="Group_117" data-name="Group 117" transform="translate(245.002 2197)">
      <path id="Path_147" data-name="Path 147" class="cls-2" d="M24,12.059A68.5,68.5,0,0,1,35.321,5.1" transform="translate(3.038 0.541)"/>
      <path id="Path_148" data-name="Path 148" class="cls-2" d="M11.945,24.448a68.883,68.883,0,0,1,7.987-8.971" transform="translate(1.446 1.912)"/>
      <path id="Path_149" data-name="Path 149" class="cls-2" d="M5.166,35.778a68.275,68.275,0,0,1,3.4-6.665" transform="translate(0.551 3.713)"/>
      <path id="Path_150" data-name="Path 150" class="cls-2" d="M8.431,25.273A68.812,68.812,0,0,1,1,19.443" transform="translate(0 2.436)"/>
      <path id="Path_151" data-name="Path 151" class="cls-2" d="M24.614,32.759A68.054,68.054,0,0,1,13.472,28.13" transform="translate(1.647 3.583)"/>
      <path id="Path_152" data-name="Path 152" class="cls-2" d="M40.175,35.084A68.647,68.647,0,0,1,30.1,33.927" transform="translate(3.843 4.349)"/>
      <circle id="Ellipse_32" data-name="Ellipse 32" class="cls-2" cx="23.773" cy="23.773" r="23.773" transform="translate(1 1)"/>
      <path id="Path_153" data-name="Path 153" class="cls-2" d="M21.059,11.227Q21,9.8,21,8.358A69.268,69.268,0,0,1,21.391,1" transform="translate(2.642 0)"/>
      <path id="Path_154" data-name="Path 154" class="cls-2" d="M25.751,31.606A68,68,0,0,1,21.741,17" transform="translate(2.74 2.113)"/>
      <path id="Path_155" data-name="Path 155" class="cls-2" d="M31.5,41.634q-1.743-2.615-3.247-5.394" transform="translate(3.599 4.654)"/>
      <circle id="Ellipse_29" data-name="Ellipse 29" class="cls-2" cx="3.962" cy="3.962" r="3.962" transform="translate(7.793 25.906)"/>
      <circle id="Ellipse_30" data-name="Ellipse 30" class="cls-2" cx="3.962" cy="3.962" r="3.962" transform="translate(20.245 11.189)"/>
      <circle id="Ellipse_31" data-name="Ellipse 31" class="cls-2" cx="3.962" cy="3.962" r="3.962" transform="translate(26.132 33.378)"/>
    </g>
  </g>
</svg>
