<svg xmlns="http://www.w3.org/2000/svg" xmlns:xlink="http://www.w3.org/1999/xlink" viewBox="121 2486 51 51">
  <defs>
    <style>
      .cls-1 {
        clip-path: url(#clip-icon_industries_57);
      }

      .cls-2, .cls-3 {
        fill: none;
        stroke: #12213d;
        stroke-miterlimit: 10;
        stroke-width: 2px;
      }

      .cls-3 {
        stroke-linecap: round;
      }

      .cls-4 {
        fill: #fff;
      }
    </style>
    <clipPath id="clip-icon_industries_57">
      <rect x="121" y="2486" width="51" height="51"/>
    </clipPath>
  </defs>
  <g id="icon_industries_57" class="cls-1">
    <rect class="cls-4" x="121" y="2486" width="51" height="51"/>
    <g id="Group_131" data-name="Group 131" transform="translate(123 2487.839)">
      <g id="Group_130" data-name="Group 130" transform="matrix(0.999, -0.035, 0.035, 0.999, 9.993, 14.065)">
        <rect id="Rectangle_3" data-name="Rectangle 3" class="cls-2" width="13.701" height="11.765" transform="translate(10.425 9.159)"/>
        <path id="Path_216" data-name="Path 216" class="cls-2" d="M27.113,44.2h-.6L21.9,39.661V27.3H36.272l4.542,4.542v.67" transform="translate(-16.687 -23.353)"/>
        <line id="Line_75" data-name="Line 75" class="cls-2" x2="5.213" y2="5.213" transform="translate(12.436 3.947)"/>
        <line id="Line_76" data-name="Line 76" class="cls-2" x2="5.213" y2="5.213" transform="translate(5.213 3.947)"/>
        <path id="Path_217" data-name="Path 217" class="cls-3" d="M18.176,36.372,14.9,33.1V22H26.665L28.6,23.936" transform="translate(-14.9 -22)"/>
        <line id="Line_77" data-name="Line 77" class="cls-3" x2="3.276" y2="3.276"/>
        <line id="Line_78" data-name="Line 78" class="cls-2" x1="1.34" transform="translate(20.85 18.244)"/>
        <line id="Line_79" data-name="Line 79" class="cls-2" x1="1.34" transform="translate(18.914 18.244)"/>
      </g>
      <g id="Group_133" data-name="Group 133" transform="matrix(0.259, -0.966, 0.966, 0.259, -5.092, 40.309)">
        <path id="Path_229" data-name="Path 229" class="cls-2" d="M24.9,39l-4,4,4,4"/>
        <path id="Path_230" data-name="Path 230" class="cls-2" d="M43.1,16.1A21.045,21.045,0,0,1,22.9,43h-2"/>
        <path id="Path_231" data-name="Path 231" class="cls-2" d="M36.6,12l5.5,1.5L43.6,8"/>
        <path id="Path_232" data-name="Path 232" class="cls-2" d="M17.9,42.5a21.121,21.121,0,0,1-13.2-31l1-1.7"/>
        <path id="Path_233" data-name="Path 233" class="cls-2" d="M7.7,7.5a21.023,21.023,0,0,1,33.4,4l1,1.7"/>
        <path id="Path_234" data-name="Path 234" class="cls-2" d="M7.2,15.5,5.7,10,.3,11.5"/>
      </g>
    </g>
  </g>
</svg>
