<svg xmlns="http://www.w3.org/2000/svg" xmlns:xlink="http://www.w3.org/1999/xlink" viewBox="-199 2486 51 51">
  <defs>
    <style>
      .cls-1 {
        clip-path: url(#clip-icon_industries_52);
      }

      .cls-2, .cls-3 {
        fill: none;
        stroke: #12213d;
        stroke-miterlimit: 10;
        stroke-width: 2px;
      }

      .cls-2 {
        stroke-linejoin: round;
      }

      .cls-3 {
        stroke-linecap: round;
      }

      .cls-4 {
        fill: #fff;
      }
    </style>
    <clipPath id="clip-icon_industries_52">
      <rect x="-199" y="2486" width="51" height="51"/>
    </clipPath>
  </defs>
  <g id="icon_industries_52" class="cls-1">
    <rect class="cls-4" x="-199" y="2486" width="51" height="51"/>
    <g id="Group_120" data-name="Group 120" transform="translate(-198 2502)">
      <rect id="Rectangle_1" data-name="Rectangle 1" class="cls-2" width="31.5" height="25.337" transform="translate(1 1)"/>
      <line id="Line_48" data-name="Line 48" class="cls-2" x1="27.391" transform="translate(3.054 23.598)"/>
      <line id="Line_49" data-name="Line 49" class="cls-2" x2="31.5" transform="translate(1 5.109)"/>
      <line id="Line_50" data-name="Line 50" class="cls-2" x2="1.37" transform="translate(3.054 3.054)"/>
      <line id="Line_51" data-name="Line 51" class="cls-2" x2="1.37" transform="translate(5.109 3.054)"/>
      <line id="Line_52" data-name="Line 52" class="cls-2" x2="1.37" transform="translate(7.163 3.054)"/>
      <path id="Path_166" data-name="Path 166" class="cls-2" d="M10,29.163V23h2.739v6.163" transform="translate(-2.837 -6.935)"/>
      <path id="Path_167" data-name="Path 167" class="cls-2" d="M18,27.272V17h2.739V27.272" transform="translate(-5.359 -5.043)"/>
      <path id="Path_168" data-name="Path 168" class="cls-2" d="M28.739,28.533V21H26v7.533" transform="translate(-7.88 -6.304)"/>
      <path id="Path_169" data-name="Path 169" class="cls-2" d="M36.739,26.326V14H34V26.326" transform="translate(-10.402 -4.098)"/>
    </g>
    <path id="Path_170" data-name="Path 170" class="cls-3" d="M27,10.1A8.156,8.156,0,0,1,34,6a8.024,8.024,0,0,1,8,8,17.988,17.988,0,0,1-1,6c-2.8-.3-5,1.2-5,4,0,2,1.5,3.6,4,4" transform="translate(-196 2491)"/>
    <path id="Path_171" data-name="Path 171" class="cls-3" d="M21.6,10A13.018,13.018,0,0,1,47,14" transform="translate(-196 2491)"/>
    <path id="Path_172" data-name="Path 172" class="cls-3" d="M46,34c0,2.6-1.5,6-5,6-3.9,0-5.5-3.1-6.8-5.3a17.986,17.986,0,0,0-2.5-2.8" transform="translate(-196 2489)"/>
  </g>
</svg>
