<svg xmlns="http://www.w3.org/2000/svg" xmlns:xlink="http://www.w3.org/1999/xlink" viewBox="300 2196 51 51">
  <defs>
    <style>
      .cls-1 {
        clip-path: url(#clip-icon_industries_111);
      }

      .cls-2 {
        fill: none;
        stroke: #12213d;
        stroke-miterlimit: 10;
        stroke-width: 2px;
      }

      .cls-3 {
        fill: #fff;
      }
    </style>
    <clipPath id="clip-icon_industries_111">
      <rect x="300" y="2196" width="51" height="51"/>
    </clipPath>
  </defs>
  <g id="icon_industries_111" class="cls-1">
    <rect class="cls-3" x="300" y="2196" width="51" height="51"/>
    <g id="Group_118" data-name="Group 118" transform="translate(300 2198)">
      <path id="Path_158" data-name="Path 158" class="cls-2" d="M43.9,15.858V4.184A3.184,3.184,0,0,0,40.717,1H14.184A3.184,3.184,0,0,0,11,4.184V8.429" transform="translate(0.613)"/>
      <path id="Path_159" data-name="Path 159" class="cls-2" d="M27,24.429h3.14l5.663,5.63a1.061,1.061,0,0,0,1.81-.753V24.429h2.123a3.184,3.184,0,0,0,3.184-3.184V17" transform="translate(1.594 0.981)"/>
      <path id="Path_160" data-name="Path 160" class="cls-2" d="M17,31.981v4.245a3.184,3.184,0,0,0,3.184,3.184h12l7.5,6.039a1.061,1.061,0,0,0,1.727-.827V39.41h4.245a3.184,3.184,0,0,0,3.184-3.184V18.184A3.184,3.184,0,0,0,45.656,15H27.613" transform="translate(0.981 0.858)"/>
      <line id="Line_45" data-name="Line 45" class="cls-2" y2="5.307" transform="translate(17.981 25.41)"/>
      <path id="Path_161" data-name="Path 161" class="cls-2" d="M25.491,15H20.184A3.184,3.184,0,0,0,17,18.184v4.245" transform="translate(0.981 0.858)"/>
      <path id="Path_156" data-name="Path 156" class="cls-2" d="M4.184,8H25.41a3.184,3.184,0,0,1,3.184,3.184V29.226A3.184,3.184,0,0,1,25.41,32.41H12.353L7.074,37.929a1.061,1.061,0,0,1-1.828-.734V32.41H4.184A3.184,3.184,0,0,1,1,29.226V11.184A3.184,3.184,0,0,1,4.184,8Z" transform="translate(0 0.429)"/>
      <path id="Path_157" data-name="Path 157" class="cls-2" d="M11,10V21.675a3.184,3.184,0,0,0,3.184,3.184H25.858" transform="translate(0.613 0.552)"/>
    </g>
  </g>
</svg>
