<svg xmlns="http://www.w3.org/2000/svg" xmlns:xlink="http://www.w3.org/1999/xlink" viewBox="57 2486 51 51">
  <defs>
    <style>
      .cls-1 {
        clip-path: url(#clip-icon_industries_56);
      }

      .cls-2, .cls-3, .cls-4 {
        fill: none;
        stroke: #12213d;
        stroke-width: 2px;
      }

      .cls-2 {
        stroke-linejoin: round;
      }

      .cls-2, .cls-3 {
        stroke-miterlimit: 10;
      }

      .cls-5 {
        fill: #fff;
      }
    </style>
    <clipPath id="clip-icon_industries_56">
      <rect x="57" y="2486" width="51" height="51"/>
    </clipPath>
  </defs>
  <g id="icon_industries_56" class="cls-1">
    <rect class="cls-5" x="57" y="2486" width="51" height="51"/>
    <path id="Path_195" data-name="Path 195" class="cls-2" d="M45.3,16.253h8.527V14l5.258,6.009-5.258,6.009V23.764H48.091" transform="translate(47.419 2480.176)"/>
    <g id="Group_124" data-name="Group 124" transform="translate(67.382 2490)">
      <path id="Path_186" data-name="Path 186" class="cls-3" d="M26.147,10.314V3.794A2.744,2.744,0,0,0,23.353,1H3.794A2.744,2.744,0,0,0,1,3.794V41.049a2.744,2.744,0,0,0,2.794,2.794H23.353a2.744,2.744,0,0,0,2.794-2.794V32.667" transform="translate(-1 -1)"/>
      <line id="Line_55" data-name="Line 55" class="cls-3" x2="25.147" transform="translate(0 4.657)"/>
      <line id="Line_56" data-name="Line 56" class="cls-3" x2="25.147" transform="translate(0 37.255)"/>
      <line id="Line_57" data-name="Line 57" class="cls-3" x2="2.794" transform="translate(11.176 40.049)"/>
      <g id="Group_123" data-name="Group 123" transform="translate(7.451 9.314)">
        <path id="Path_187" data-name="Path 187" class="cls-3" d="M29.211,20.314v-8.2A1.133,1.133,0,0,0,28.093,11H10.118A1.133,1.133,0,0,0,9,12.118v10.9a1.133,1.133,0,0,0,1.118,1.118h4.471" transform="translate(-9 -11)"/>
        <line id="Line_58" data-name="Line 58" class="cls-3" x1="20.118" transform="translate(0.093 2.701)"/>
        <path id="Path_198" data-name="Path 198" class="cls-4" d="M20.118,0H0" transform="translate(0.093 5.961)"/>
        <line id="Line_60" data-name="Line 60" class="cls-3" x2="2.701" transform="translate(8.103 18.534)"/>
        <line id="Line_61" data-name="Line 61" class="cls-3" x2="2.701" transform="translate(12.48 18.534)"/>
        <line id="Line_62" data-name="Line 62" class="cls-3" x2="2.794" transform="translate(16.765 18.534)"/>
        <line id="Line_63" data-name="Line 63" class="cls-3" x2="2.794" transform="translate(21.142 18.534)"/>
        <path id="Path_189" data-name="Path 189" class="cls-3" d="M33.784,25.763a1.868,1.868,0,0,1-1.863,1.863h-.559A1.868,1.868,0,0,1,29.5,25.763h0A1.868,1.868,0,0,1,31.363,23.9h.466a1.89,1.89,0,0,1,1.956,1.863Z" transform="translate(-10.407 -11.885)"/>
        <path id="Path_197" data-name="Path 197" class="cls-3" d="M2.13,1A1.088,1.088,0,0,0,1,2.13V13.145a1.069,1.069,0,0,0,1.13,1.036H20.3a1.145,1.145,0,0,0,1.13-1.13V2.13A1.145,1.145,0,0,0,20.3,1Z" transform="translate(4.985 8.529)"/>
      </g>
    </g>
    <path id="Path_196" data-name="Path 196" class="cls-2" d="M8.511,29.764H6.258v2.253L1,26.009,6.258,20v2.253H8.511" transform="translate(58 2490.791)"/>
  </g>
</svg>
