<svg xmlns="http://www.w3.org/2000/svg" xmlns:xlink="http://www.w3.org/1999/xlink" viewBox="-260 2196 51 51">
  <defs>
    <style>
      .cls-1 {
        clip-path: url(#clip-icon_industries_11);
      }

      .cls-2, .cls-3 {
        fill: none;
        stroke: #12213d;
        stroke-miterlimit: 10;
        stroke-width: 2px;
      }

      .cls-2 {
        stroke-linecap: round;
      }

      .cls-4 {
        fill: #fff;
      }
    </style>
    <clipPath id="clip-icon_industries_11">
      <rect x="-260" y="2196" width="51" height="51"/>
    </clipPath>
  </defs>
  <g id="icon_industries_11" class="cls-1">
    <rect class="cls-4" x="-260" y="2196" width="51" height="51"/>
    <g id="Group_107" data-name="Group 107" transform="translate(-260 2197.017)">
      <path id="Path_77" data-name="Path 77" class="cls-2" d="M27.111,18.529c-1.911-2.176-4.058-4.3-6.264-6.408m-6.267,0C7.237,19.122,1.008,27.648,1,34.057c0,8.86,7.471,12.535,16.713,12.535a28.209,28.209,0,0,0,6.267-.654" transform="translate(0 0.496)"/>
      <path id="Path_78" data-name="Path 78" class="cls-3" d="M14,32.522v1.045a2.089,2.089,0,0,0,2.089,2.089h2.089a2.089,2.089,0,0,0,2.089-2.089V31.939a2.089,2.089,0,0,0-1.428-1.982L15.428,28.82A2.089,2.089,0,0,1,14,26.838V25.21a2.089,2.089,0,0,1,2.089-2.089h2.089a2.089,2.089,0,0,1,2.089,2.089v1.045" transform="translate(0.579 0.986)"/>
      <line id="Line_9" data-name="Line 9" class="cls-3" y1="3.134" transform="translate(17.713 20.973)"/>
      <line id="Line_10" data-name="Line 10" class="cls-3" y2="3.134" transform="translate(17.713 36.642)"/>
      <path id="Path_79" data-name="Path 79" class="cls-3" d="M20.461,12.617c-.375.62-2.154,1.045-3.134,1.045s-2.742-.473-3.134-1.045c0,0-4.708-9.073-4.538-9.4C11.18.274,14.355.84,17.331,1.65a18.363,18.363,0,0,0,6.737.906C24.139,3.755,20.461,12.617,20.461,12.617Z" transform="translate(0.386 0)"/>
      <path id="Path_80" data-name="Path 80" class="cls-3" d="M42.936,42.021H38.185L34.907,37.2H30.089" transform="translate(1.296 1.613)"/>
      <line id="Line_11" data-name="Line 11" class="cls-3" x1="4.015" transform="translate(40.218 34.802)"/>
      <circle id="Ellipse_11" data-name="Ellipse 11" class="cls-3" cx="2.409" cy="2.409" r="2.409" transform="translate(44.232 41.225)"/>
      <path id="Path_81" data-name="Path 81" class="cls-3" d="M42.97,24.9H39.825l-3.179,4.818H29.32" transform="translate(1.262 1.065)"/>
      <circle id="Ellipse_12" data-name="Ellipse 12" class="cls-3" cx="2.409" cy="2.409" r="2.409" transform="translate(44.232 23.561)"/>
      <circle id="Ellipse_13" data-name="Ellipse 13" class="cls-3" cx="2.409" cy="2.409" r="2.409" transform="translate(44.232 32.393)"/>
      <path id="Path_82" data-name="Path 82" class="cls-3" d="M38.358,20.292l-4.015,5.621H24.708" transform="translate(1.057 0.86)"/>
      <circle id="Ellipse_14" data-name="Ellipse 14" class="cls-3" cx="2.409" cy="2.409" r="2.409" transform="translate(38.612 16.334)"/>
      <line id="Line_12" data-name="Line 12" class="cls-3" x1="1.606" transform="translate(37.006 34.802)"/>
      <line id="Line_13" data-name="Line 13" class="cls-3" x1="1.606" transform="translate(33.794 34.802)"/>
      <line id="Line_14" data-name="Line 14" class="cls-3" x1="4.334" transform="translate(25.445 38.816)"/>
      <line id="Line_15" data-name="Line 15" class="cls-3" x1="5.137" transform="translate(23.839 30.787)"/>
    </g>
  </g>
</svg>
