<svg xmlns="http://www.w3.org/2000/svg" xmlns:xlink="http://www.w3.org/1999/xlink" viewBox="-203 2631 50 50">
  <defs>
    <style>
      .cls-1 {
        clip-path: url(#clip-icon_industries_dp_12);
      }

      .cls-2 {
        fill: none;
        stroke: #12213d;
        stroke-linejoin: round;
        stroke-miterlimit: 10;
        stroke-width: 2px;
      }

      .cls-3 {
        fill: #fff;
      }
    </style>
    <clipPath id="clip-icon_industries_dp_12">
      <rect x="-203" y="2631" width="50" height="50"/>
    </clipPath>
  </defs>
  <g id="icon_industries_dp_12" class="cls-1">
    <rect class="cls-3" x="-203" y="2631" width="50" height="50"/>
    <g id="Group_130" data-name="Group 130" transform="translate(-201 2634)">
      <path id="Path_216" data-name="Path 216" class="cls-2" d="M29,23a5,5,0,1,1-5-5A4.951,4.951,0,0,1,29,23Z"/>
      <path id="Path_217" data-name="Path 217" class="cls-2" d="M15.9,13a10.865,10.865,0,0,0-2.3,2.5l-3-1-2,4.8,2.8,1.4a14.079,14.079,0,0,0,0,4.1L8.6,26.2l2,4.8,2.9-1a13.3,13.3,0,0,0,2.9,2.9l-1,3,4.8,2,1.4-2.8c1.8.7,6.4.8,8.3.8h10v-2l7,5-7,6v-2H23A18.843,18.843,0,0,1,4,24c0-1,.1-2,.2-3"/>
      <path id="Path_218" data-name="Path 218" class="cls-2" d="M32.1,33a10.865,10.865,0,0,0,2.3-2.5l3,1,2-4.8-2.8-1.4a14.079,14.079,0,0,0,0-4.1l2.8-1.4-2-4.8-2.9,1a13.3,13.3,0,0,0-2.9-2.9l1-3-4.8-2-1.4,2.8c-2-.8-6.6-.9-8.4-.9H8v2L1,7,8,1V3H25A18.992,18.992,0,0,1,44,22a17.518,17.518,0,0,1-.4,4"/>
    </g>
  </g>
</svg>
