<svg xmlns="http://www.w3.org/2000/svg" xmlns:xlink="http://www.w3.org/1999/xlink" viewBox="-36 2196 51 51">
  <defs>
    <style>
      .cls-1 {
        clip-path: url(#clip-icon_industries_15);
      }

      .cls-2 {
        fill: none;
        stroke: #12213d;
        stroke-linejoin: round;
        stroke-miterlimit: 10;
        stroke-width: 2px;
      }

      .cls-3 {
        fill: #fff;
      }
    </style>
    <clipPath id="clip-icon_industries_15">
      <rect x="-36" y="2196" width="51" height="51"/>
    </clipPath>
  </defs>
  <g id="icon_industries_15" class="cls-1">
    <rect class="cls-3" x="-36" y="2196" width="51" height="51"/>
    <g id="Group_111" data-name="Group 111" transform="translate(-34 2197)">
      <path id="Path_100" data-name="Path 100" class="cls-2" d="M24.971,7.544c0-2.172.193-6.544-5.453-6.544-4.5,0-8.589,4.806-8.725,7.634a7.348,7.348,0,0,0-6.166,8C1.4,18.212-.935,26.649,3.271,30.651c-.765,3.441,1.588,11.324,8.612,10.7,1.71,9.191,13.088,8.916,13.088,2.181V38.081" transform="translate(0)"/>
      <path id="Path_101" data-name="Path 101" class="cls-2" d="M17.614,14.544c-3.966,0-7.634-.618-7.634-6.544" transform="translate(0.814 0.634)"/>
      <path id="Path_103" data-name="Path 103" class="cls-2" d="M17.979,35.363c.8-1.876,2.727-2.363,5.453-2.363H37.611" transform="translate(1.539 2.9)"/>
      <path id="Path_104" data-name="Path 104" class="cls-2" d="M12.724,32.627c-1.828-.287-3.441-2.01-3.441-3.441" transform="translate(0.751 2.554)"/>
      <path id="Path_105" data-name="Path 105" class="cls-2" d="M10.979,38.8c0-4.193,2.379-9.612,8.472-9.612" transform="translate(0.904 2.554)"/>
      <path id="Path_106" data-name="Path 106" class="cls-2" d="M7.18,17.9a3.279,3.279,0,0,1,3.441,3.245,3.705,3.705,0,0,1-2.294,3.441" transform="translate(0.56 1.532)"/>
      <path id="Path_107" data-name="Path 107" class="cls-2" d="M30.1,9.249H23.554c-2.965,0-5.882-.452-6.91-2.991" transform="translate(1.418 0.477)"/>
      <line id="Line_25" data-name="Line 25" class="cls-2" y2="6.544" transform="translate(24.971 11.906)"/>
      <line id="Line_26" data-name="Line 26" class="cls-2" y2="11.997" transform="translate(24.971 21.722)"/>
      <line id="Line_27" data-name="Line 27" class="cls-2" x2="6.544" transform="translate(24.971 27.175)"/>
      <line id="Line_28" data-name="Line 28" class="cls-2" x2="4.363" transform="translate(27.153 44.625)"/>
      <circle id="Ellipse_15" data-name="Ellipse 15" class="cls-2" cx="3.272" cy="3.272" r="3.272" transform="translate(39.15 15.178)"/>
      <circle id="Ellipse_16" data-name="Ellipse 16" class="cls-2" cx="3.272" cy="3.272" r="3.272" transform="translate(31.515 6.453)"/>
      <circle id="Ellipse_17" data-name="Ellipse 17" class="cls-2" cx="3.272" cy="3.272" r="3.272" transform="translate(31.515 23.903)"/>
      <circle id="Ellipse_18" data-name="Ellipse 18" class="cls-2" cx="3.272" cy="3.272" r="3.272" transform="translate(31.515 41.353)"/>
      <circle id="Ellipse_19" data-name="Ellipse 19" class="cls-2" cx="3.272" cy="3.272" r="3.272" transform="translate(39.15 32.628)"/>
      <path id="Path_102" data-name="Path 102" class="cls-2" d="M10.335,21.229A5.616,5.616,0,0,0,16.948,20.2c1.232-1.295,2.548-3.35,3.905-3.2H38.3" transform="translate(0.846 1.449)"/>
    </g>
  </g>
</svg>
