<svg xmlns="http://www.w3.org/2000/svg" xmlns:xlink="http://www.w3.org/1999/xlink" viewBox="-204 2196 51 51">
  <defs>
    <style>
      .cls-1 {
        clip-path: url(#clip-icon_industries_12);
      }

      .cls-2 {
        fill: none;
        stroke: #12213d;
        stroke-miterlimit: 10;
        stroke-width: 2px;
      }

      .cls-3 {
        fill: #fff;
      }
    </style>
    <clipPath id="clip-icon_industries_12">
      <rect x="-204" y="2196" width="51" height="51"/>
    </clipPath>
  </defs>
  <g id="icon_industries_12" class="cls-1">
    <rect class="cls-3" x="-204" y="2196" width="51" height="51"/>
    <g id="Group_108" data-name="Group 108" transform="translate(-203.045 2199)">
      <path id="Path_83" data-name="Path 83" class="cls-2" d="M20.016,26.444v1.04A2.081,2.081,0,0,0,22.1,29.565h4.162a2.081,2.081,0,0,0,2.081-2.081V24.823a2.081,2.081,0,0,0-1.423-1.974l-5.478-1.132a2.081,2.081,0,0,1-1.423-1.974V17.081A2.081,2.081,0,0,1,22.1,15h4.162a2.081,2.081,0,0,1,2.081,2.081v2.081" transform="translate(0.726 0.565)"/>
      <line id="Line_16" data-name="Line 16" class="cls-2" y1="4.162" transform="translate(24.903 11.404)"/>
      <line id="Line_17" data-name="Line 17" class="cls-2" y2="4.162" transform="translate(24.903 30.131)"/>
      <path id="Path_84" data-name="Path 84" class="cls-2" d="M15.535,36.306a13.58,13.58,0,0,1-3.784-16.975L14.5,21.57l1.3-14.7L2.045,11.509l2.877,2.323A21.8,21.8,0,0,0,24.9,44.459" transform="translate(0 0.237)"/>
      <path id="Path_85" data-name="Path 85" class="cls-2" d="M33.413,9.153A13.58,13.58,0,0,1,37.2,26.128l-2.748-2.24-1.3,14.7L46.9,33.949l-2.877-2.323A21.8,21.8,0,0,0,24.045,1" transform="translate(0.888 0)"/>
    </g>
  </g>
</svg>
