<svg xmlns="http://www.w3.org/2000/svg" xmlns:xlink="http://www.w3.org/1999/xlink" viewBox="-143 2631 50 50">
  <defs>
    <style>
      .cls-1 {
        clip-path: url(#clip-icon_industries_dp_13);
      }

      .cls-2 {
        fill: none;
        stroke: #12213d;
        stroke-miterlimit: 10;
        stroke-width: 2px;
      }

      .cls-3 {
        fill: #fff;
      }
    </style>
    <clipPath id="clip-icon_industries_dp_13">
      <rect x="-143" y="2631" width="50" height="50"/>
    </clipPath>
  </defs>
  <g id="icon_industries_dp_13" class="cls-1">
    <rect class="cls-3" x="-143" y="2631" width="50" height="50"/>
    <g id="Group_132" data-name="Group 132" transform="translate(-138 2633)">
      <g id="Group_131" data-name="Group 131">
        <path id="Path_219" data-name="Path 219" class="cls-2" d="M24,46H4a2.946,2.946,0,0,1-3-3V4A2.946,2.946,0,0,1,4,1H24a2.946,2.946,0,0,1,3,3V43A2.946,2.946,0,0,1,24,46Z"/>
        <line id="Line_75" data-name="Line 75" class="cls-2" x2="26" transform="translate(1 6)"/>
        <line id="Line_76" data-name="Line 76" class="cls-2" x2="26" transform="translate(1 40)"/>
        <line id="Line_77" data-name="Line 77" class="cls-2" x2="4" transform="translate(12 43)"/>
      </g>
      <path id="Path_220" data-name="Path 220" class="cls-2" d="M19,18V15a.945.945,0,0,1,1-1h4"/>
      <path id="Path_221" data-name="Path 221" class="cls-2" d="M27,14H39a.945.945,0,0,1,1,1V42H27"/>
      <path id="Path_222" data-name="Path 222" class="cls-2" d="M24,10H22a.945.945,0,0,0-1,1v3"/>
      <path id="Path_223" data-name="Path 223" class="cls-2" d="M38,14V11a.945.945,0,0,0-1-1H27"/>
      <path id="Path_224" data-name="Path 224" class="cls-2" d="M21,30H20v4l-5-4H7a2.006,2.006,0,0,1-2-2V20a2.006,2.006,0,0,1,2-2H21a2.006,2.006,0,0,1,2,2v8A2.006,2.006,0,0,1,21,30Z"/>
      <line id="Line_78" data-name="Line 78" class="cls-2" y2="6" transform="translate(14 21)"/>
      <line id="Line_79" data-name="Line 79" class="cls-2" x1="6" transform="translate(11 24)"/>
      <path id="Path_225" data-name="Path 225" class="cls-2" d="M36,22V19H32v3"/>
      <path id="Path_226" data-name="Path 226" class="cls-2" d="M36,28V25H32v3"/>
      <path id="Path_227" data-name="Path 227" class="cls-2" d="M36,34V31H32v3"/>
    </g>
  </g>
</svg>
