<svg xmlns="http://www.w3.org/2000/svg" xmlns:xlink="http://www.w3.org/1999/xlink" viewBox="-263 2631 50 50">
  <defs>
    <style>
      .cls-1 {
        clip-path: url(#clip-icon_industries_dp_11);
      }

      .cls-2 {
        fill: none;
        stroke: #12213d;
        stroke-miterlimit: 10;
        stroke-width: 2px;
      }

      .cls-3 {
        fill: #fff;
      }
    </style>
    <clipPath id="clip-icon_industries_dp_11">
      <rect x="-263" y="2631" width="50" height="50"/>
    </clipPath>
  </defs>
  <g id="icon_industries_dp_11" class="cls-1">
    <rect class="cls-3" x="-263" y="2631" width="50" height="50"/>
    <g id="Group_130" data-name="Group 130" transform="translate(-259 2633.006)">
      <path id="Path_216" data-name="Path 216" class="cls-2" d="M35,33h4.7a.778.778,0,0,0,.7-1.1c-.4-.7-.7-1.4-.6-1.6.1-.3.6-.4,1.8-1.1a1.535,1.535,0,0,0,.6-2.4c-.5-.7-3.7-4.9-3.8-6.2-.1-.8.9-2.9.2-6.2C37.9,11.2,34,.7,20,1S1,10.8,1,17.6,4.4,27.7,5.5,30.9C7,35.3,7.8,40.3,5.1,46"/>
      <path id="Path_217" data-name="Path 217" class="cls-2" d="M26,46.2c.6-2.6,1.8-4.9,2.9-5.3"/>
      <path id="Path_218" data-name="Path 218" class="cls-2" d="M22,34.4c1.4,2.5,3.6,5.5,4.5,5.8,1.3.4,6.7,1.9,8.7,1.2a2.659,2.659,0,0,0,1.6-3.1c.1-1.3,1.4-1.5,1.2-3.3"/>
      <rect id="Rectangle_3" data-name="Rectangle 3" class="cls-2" width="16" height="16" transform="translate(12 11)"/>
      <rect id="Rectangle_4" data-name="Rectangle 4" class="cls-2" width="6" height="6" transform="translate(17 16)"/>
      <line id="Line_75" data-name="Line 75" class="cls-2" y2="4" transform="translate(14 7)"/>
      <line id="Line_76" data-name="Line 76" class="cls-2" y2="4" transform="translate(18 7)"/>
      <line id="Line_77" data-name="Line 77" class="cls-2" y2="4" transform="translate(22 7)"/>
      <line id="Line_78" data-name="Line 78" class="cls-2" y2="4" transform="translate(26 7)"/>
      <line id="Line_79" data-name="Line 79" class="cls-2" y2="4" transform="translate(14 27)"/>
      <line id="Line_80" data-name="Line 80" class="cls-2" y2="4" transform="translate(18 27)"/>
      <line id="Line_81" data-name="Line 81" class="cls-2" y2="4" transform="translate(22 27)"/>
      <line id="Line_82" data-name="Line 82" class="cls-2" y2="4" transform="translate(26 27)"/>
      <line id="Line_83" data-name="Line 83" class="cls-2" x1="4" transform="translate(8 13)"/>
      <line id="Line_84" data-name="Line 84" class="cls-2" x1="4" transform="translate(8 17)"/>
      <line id="Line_85" data-name="Line 85" class="cls-2" x1="4" transform="translate(8 21)"/>
      <line id="Line_86" data-name="Line 86" class="cls-2" x1="4" transform="translate(8 25)"/>
      <line id="Line_87" data-name="Line 87" class="cls-2" x1="4" transform="translate(28 13)"/>
      <line id="Line_88" data-name="Line 88" class="cls-2" x1="4" transform="translate(28 17)"/>
      <line id="Line_89" data-name="Line 89" class="cls-2" x1="4" transform="translate(28 21)"/>
      <line id="Line_90" data-name="Line 90" class="cls-2" x1="4" transform="translate(28 25)"/>
    </g>
  </g>
</svg>
