<svg xmlns="http://www.w3.org/2000/svg" xmlns:xlink="http://www.w3.org/1999/xlink" viewBox="20 2196 51 51">
  <defs>
    <style>
      .cls-1 {
        clip-path: url(#clip-icon_industries_16);
      }

      .cls-2 {
        fill: none;
        stroke: #12213d;
        stroke-miterlimit: 10;
        stroke-width: 2px;
      }

      .cls-3 {
        fill: #fff;
      }
    </style>
    <clipPath id="clip-icon_industries_16">
      <rect x="20" y="2196" width="51" height="51"/>
    </clipPath>
  </defs>
  <g id="icon_industries_16" class="cls-1">
    <rect class="cls-3" x="20" y="2196" width="51" height="51"/>
    <g id="Group_113" data-name="Group 113" transform="translate(21 2196)">
      <path id="Path_108" data-name="Path 108" class="cls-2" d="M29.5,45.942H34.09l4.2-4.529V22.722c5.494-1.365,7.8-5.6,7.8-10.628a11.1,11.1,0,0,0-22.194,0c0,4.1,3.4,7.679,5.6,9.6V28.4l2.2,1.737v1.737l-2.2,2.485v1.509l2.2,2.085v1.737l-2.2,1.737Z" transform="translate(2.263)"/>
      <circle id="Ellipse_20" data-name="Ellipse 20" class="cls-2" cx="3.296" cy="3.296" r="3.296" transform="translate(33.965 5.286)"/>
      <path id="Path_109" data-name="Path 109" class="cls-2" d="M7,10.9h4.3l4.487,6.593h2.2" transform="translate(0.593 0.978)"/>
      <line id="Line_29" data-name="Line 29" class="cls-2" x2="5.494" transform="translate(7.593 23.966)"/>
      <circle id="Ellipse_21" data-name="Ellipse 21" class="cls-2" cx="3.296" cy="3.296" r="3.296" transform="translate(1 8.582)"/>
      <path id="Path_110" data-name="Path 110" class="cls-2" d="M7,33.493h4.3l4.35-6.593h2.334" transform="translate(0.593 2.56)"/>
      <circle id="Ellipse_22" data-name="Ellipse 22" class="cls-2" cx="3.296" cy="3.296" r="3.296" transform="translate(1 32.756)"/>
      <circle id="Ellipse_23" data-name="Ellipse 23" class="cls-2" cx="3.296" cy="3.296" r="3.296" transform="translate(1 20.669)"/>
      <path id="Path_111" data-name="Path 111" class="cls-2" d="M13,39.592,18.4,31.9h6.684" transform="translate(1.186 3.054)"/>
      <circle id="Ellipse_24" data-name="Ellipse 24" class="cls-2" cx="3.296" cy="3.296" r="3.296" transform="translate(8.692 42.646)"/>
      <line id="Line_30" data-name="Line 30" class="cls-2" x1="2.198" transform="translate(19.68 23.966)"/>
      <line id="Line_31" data-name="Line 31" class="cls-2" x1="2.198" transform="translate(15.285 23.966)"/>
      <line id="Line_32" data-name="Line 32" class="cls-2" x2="2.198" transform="translate(20.779 18.472)"/>
      <line id="Line_33" data-name="Line 33" class="cls-2" x2="2.198" transform="translate(20.779 29.46)"/>
      <line id="Line_34" data-name="Line 34" class="cls-2" x2="4.395" transform="translate(24.075 23.966)"/>
      <line id="Line_35" data-name="Line 35" class="cls-2" x2="2.198" transform="translate(25.174 29.46)"/>
    </g>
  </g>
</svg>
