<svg xmlns="http://www.w3.org/2000/svg" xmlns:xlink="http://www.w3.org/1999/xlink" viewBox="-263 2486 51 51">
  <defs>
    <style>
      .cls-1 {
        clip-path: url(#clip-icon_industries_51);
      }

      .cls-2 {
        fill: none;
        stroke: #12213d;
        stroke-miterlimit: 10;
        stroke-width: 2px;
      }

      .cls-3 {
        fill: #fff;
      }
    </style>
    <clipPath id="clip-icon_industries_51">
      <rect x="-263" y="2486" width="51" height="51"/>
    </clipPath>
  </defs>
  <g id="icon_industries_51" class="cls-1">
    <rect class="cls-3" x="-263" y="2486" width="51" height="51"/>
    <g id="Group_132" data-name="Group 132" transform="translate(-258 2489)">
      <path id="Path_224" data-name="Path 224" class="cls-2" d="M15,32v5c0,1.6-1.4,2.4-3,2.8L6,41.4C3.3,42.1,1.1,45,1,47v1"/>
      <path id="Path_225" data-name="Path 225" class="cls-2" d="M27,32v5c0,1.6,1.4,2.4,3,2.8l6,1.6c2.7.7,4.9,2.7,5,4.6v2"/>
      <path id="Path_226" data-name="Path 226" class="cls-2" d="M34,15V9c0-6.7-1.8-8-9-8H7V6c0,2.3,1.8,5,6,5H27c3,0,4,2.7,4,5v1h3v3.9a1.965,1.965,0,0,1-.9,1.7L31,24v3c0,3.9-5.1,5.6-6,6a10.151,10.151,0,0,1-4,1,10.151,10.151,0,0,1-4-1c-.9-.4-6-2.1-6-6V24L8.9,22.6A1.965,1.965,0,0,1,8,20.9V17h3V15a4.923,4.923,0,0,1,2-4"/>
      <path id="Path_227" data-name="Path 227" class="cls-2" d="M8,9a3.708,3.708,0,0,0-1,3v2a3.082,3.082,0,0,0,2,3"/>
      <line id="Line_80" data-name="Line 80" class="cls-2" x1="1" y2="1" transform="translate(30 17)"/>
      <line id="Line_81" data-name="Line 81" class="cls-2" x2="1" transform="translate(11 17)"/>
      <path id="Path_228" data-name="Path 228" class="cls-2" d="M26.8,25.4H14a3.076,3.076,0,0,1-3-3V18a3.076,3.076,0,0,1,3-3H26.8a3.009,3.009,0,0,1,3,3v4.4A2.946,2.946,0,0,1,26.8,25.4Z"/>
      <line id="Line_82" data-name="Line 82" class="cls-2" y1="2" x2="2" transform="translate(13 17)"/>
      <line id="Line_83" data-name="Line 83" class="cls-2" y1="5" x2="5" transform="translate(14 17)"/>
    </g>
  </g>
</svg>
