<svg version="1" xmlns="http://www.w3.org/2000/svg" width="346.667" height="346.667" viewBox="0 0 260.000000 260.000000"><path d="M66.6 20.7c-.3 1-3.3 11-6.6 22.3-3.4 11.3-7.4 24.8-9 30-1.5 5.2-3.8 12.9-5 17-1.2 4.1-3 10.2-4.1 13.5-1 3.3-3.7 12.3-5.9 20-4.4 15-7.2 24.4-14.4 48-2.4 8.2-7.5 25.1-11.1 37.5-3.7 12.4-7.3 24.4-8.1 26.8-.8 2.3-1.4 4.5-1.4 4.7 0 .3 17.6.4 39.1.3l39.2-.3 1.4-4.5c.7-2.5 2.4-8.1 3.8-12.5 16.5-55 16.2-54 18.7-53.9 2.8.2 13.8 1.3 22.8 2.4 9 1 36.7.5 47-.9 41.1-5.7 69.3-26.5 82-60.5 5.4-14.3 6.2-32.5 2.1-44.4-8-23.1-28.8-39-59.6-45.3-8.1-1.7-14.7-1.8-69.7-1.9-57.1 0-60.7.1-61.2 1.7zm99.7 49.9c6.4 2.1 13.2 8.6 14.6 13.9 2.3 8.7-.9 18.4-8.8 26.8-5.7 6-12.8 9.9-21.3 11.6-13.7 2.9-36.7.8-35.3-3.1.6-1.7 5.2-17.4 7.6-25.8 1-3.6 3-10.6 4.5-15.7l2.7-9.2 4.6-.3c10.7-.7 26.7.2 31.4 1.8z"/></svg>