<?xml version="1.0" encoding="utf-8"?>
<!-- Generator: Adobe Illustrator 22.0.1, SVG Export Plug-In . SVG Version: 6.00 Build 0)  -->
<svg version="1.1" xmlns="http://www.w3.org/2000/svg" xmlns:xlink="http://www.w3.org/1999/xlink" x="0px" y="0px"
	 viewBox="0 0 25 21.9" style="enable-background:new 0 0 25 21.9;" xml:space="preserve">
<style type="text/css">
	.st0{display:none;}
	.st1{display:inline;}
	.st2{fill:none;stroke:#12213D;stroke-miterlimit:10;}
	.st3{display:inline;fill:none;}
	.st4{fill:none;stroke:#12213D;stroke-linejoin:round;stroke-miterlimit:10;}
	.st5{fill:none;stroke:#12213D;stroke-linecap:round;stroke-linejoin:round;stroke-miterlimit:10;}
</style>
<g id="Layer_1" class="st0">
	<g class="st1">
		<path class="st2" d="M14.9,15.8l5,0c2.2,0,4-1.8,4-4c0-2.2-1.8-4-4-4c-0.2,0-0.4,0-0.5,0c-0.2-2-1.9-3.6-4-3.6
			c-0.5,0-1,0.1-1.4,0.3C13.5,2.5,11.7,1,9.5,1C7,1,4.9,3.1,4.9,5.7c0,0.1,0,0.1,0,0.2c-2.3,0.5-4,2.5-4,4.9c0,2.8,2.3,5,5,5h4"/>
		<line class="st2" x1="12.4" y1="18.4" x2="12.4" y2="9.3"/>
		<polyline class="st2" points="8.9,12.8 12.4,9.3 16,12.8 		"/>
	</g>
	<rect id="_x3C_Slice_x3E_" class="st3" width="25" height="19"/>
</g>
<g id="Layer_2" class="st0">
	<g class="st1">
		<circle class="st2" cx="12.5" cy="12.1" r="4.4"/>
		<circle class="st2" cx="12.5" cy="2.2" r="1.6"/>
		<circle class="st2" cx="12.5" cy="21.9" r="1.6"/>
		<path class="st2" d="M22.9,3.8c0,0.9-0.7,1.6-1.6,1.6c-0.9,0-1.6-0.7-1.6-1.6c0-0.9,0.7-1.6,1.6-1.6C22.2,2.2,22.9,2.9,22.9,3.8z"
			/>
		<path class="st2" d="M24,12.1c0,0.9-0.7,1.6-1.6,1.6c-0.9,0-1.6-0.7-1.6-1.6c0-0.9,0.7-1.6,1.6-1.6C23.3,10.4,24,11.1,24,12.1z"/>
		<path class="st2" d="M4.3,12.1c0,0.9-0.7,1.6-1.6,1.6C1.7,13.7,1,13,1,12.1c0-0.9,0.7-1.6,1.6-1.6C3.6,10.4,4.3,11.1,4.3,12.1z"/>
		<path class="st2" d="M5.4,3.8c0,0.9-0.7,1.6-1.6,1.6c-0.9,0-1.6-0.7-1.6-1.6c0-0.9,0.7-1.6,1.6-1.6C4.6,2.2,5.4,2.9,5.4,3.8z"/>
		<path class="st2" d="M22.9,20.3c0,0.9-0.7,1.6-1.6,1.6c-0.9,0-1.6-0.7-1.6-1.6c0-0.9,0.7-1.6,1.6-1.6
			C22.2,18.6,22.9,19.4,22.9,20.3z"/>
		<path class="st2" d="M5.4,20.3c0,0.9-0.7,1.6-1.6,1.6c-0.9,0-1.6-0.7-1.6-1.6c0-0.9,0.7-1.6,1.6-1.6C4.6,18.6,5.4,19.4,5.4,20.3z"
			/>
		<line class="st2" x1="12.5" y1="3.8" x2="12.5" y2="6.6"/>
		<line class="st2" x1="12.5" y1="17.5" x2="12.5" y2="20.3"/>
		<line class="st2" x1="4.8" y1="4.9" x2="8.1" y2="8.2"/>
		<line class="st2" x1="20.2" y1="4.9" x2="16.9" y2="8.2"/>
		<line class="st2" x1="4.8" y1="19.2" x2="8.1" y2="15.9"/>
		<line class="st2" x1="20.2" y1="19.2" x2="16.9" y2="15.9"/>
		<line class="st2" x1="4.3" y1="12.1" x2="7" y2="12.1"/>
		<line class="st2" x1="18" y1="12.1" x2="20.7" y2="12.1"/>
	</g>
</g>
<g id="Layer_3">
	<g>
		<path class="st4" d="M14.6,6.1L13.7,4l-1.3,0.4c-0.4-0.5-0.8-0.9-1.3-1.3l0.4-1.3L9.5,1L8.9,2.2c-0.6-0.1-1.2-0.1-1.8,0L6.5,1
			L4.4,1.9l0.4,1.3C4.3,3.5,3.9,3.9,3.6,4.4L2.3,4L1.4,6.1l1.2,0.6c-0.1,0.6-0.1,1.2,0,1.8L1.4,9.1l0.9,2.1l1.3-0.4
			c0.4,0.5,0.8,0.9,1.3,1.3l-0.4,1.3l2.1,0.9L7.1,13c0.6,0.1,1.2,0.1,1.8,0l0.6,1.2l2.1-0.9L11.2,12c0.5-0.4,0.9-0.8,1.3-1.3
			l1.3,0.4l0.9-2.1l-1.2-0.6c0.1-0.6,0.1-1.2,0-1.8L14.6,6.1z"/>
		<circle class="st4" cx="8.1" cy="7.7" r="2.2"/>
		<path class="st4" d="M23.8,14.6l-0.7-1.7l-1,0.3c-0.3-0.4-0.6-0.7-1-1l0.3-1l-1.7-0.7l-0.5,1c-0.5-0.1-0.9-0.1-1.4,0l-0.5-1
			l-1.7,0.7l0.3,1c-0.4,0.3-0.7,0.6-1,1l-1-0.3l-0.7,1.7l1,0.5c-0.1,0.5-0.1,0.9,0,1.4l-1,0.5l0.7,1.7l1-0.3c0.3,0.4,0.6,0.7,1,1
			l-0.3,1l1.7,0.7l0.5-1c0.5,0.1,0.9,0.1,1.4,0l0.5,1l1.7-0.7l-0.3-1c0.4-0.3,0.7-0.6,1-1l1,0.3l0.7-1.7l-1-0.5
			c0.1-0.5,0.1-0.9,0-1.4L23.8,14.6z"/>
		<path class="st4" d="M20.3,15.8c0,1-0.8,1.7-1.7,1.7c-1,0-1.7-0.8-1.7-1.7s0.8-1.7,1.7-1.7C19.5,14.1,20.3,14.9,20.3,15.8z"/>
	</g>
</g>
<g id="Layer_4" class="st0">
	<g class="st1">
		<path class="st2" d="M19,17.5h2.2c0.3,0,0.4-0.3,0.3-0.5c-0.2-0.3-0.3-0.6-0.3-0.7c0-0.1,0.3-0.2,0.8-0.5c0.6-0.3,0.5-0.8,0.3-1.1
			c-0.2-0.4-1.8-2.3-1.8-2.9c0-0.4,0.4-1.4,0.1-2.9c-0.3-1.5-2.1-6.5-8.8-6.4s-9.5,4.7-9.5,7.9c0,3.2,1.6,4.8,2.2,6.3
			c0.7,2.1,1.1,4.4-0.2,7.1"/>
		<path class="st2" d="M14.7,23.8c0.3-1.2,0.9-2.3,1.4-2.5"/>
		<path class="st2" d="M13.8,18.5c0.4,1.2,0.8,2.3,1.2,2.5c0.6,0.2,3.2,0.9,4.1,0.6c0.9-0.4,0.8-1.2,0.8-1.5c0-0.6,0.7-0.7,0.6-1.6"
			/>
		<circle class="st2" cx="7.2" cy="8.1" r="1.4"/>
		<circle class="st2" cx="16.6" cy="8.1" r="1.4"/>
		<circle class="st2" cx="11.9" cy="5.7" r="1.4"/>
		<line class="st2" x1="11.9" y1="7.1" x2="11.9" y2="20.9"/>
		<polyline class="st2" points="15.7,9 13.8,10.9 13.8,13.8 		"/>
		<polyline class="st2" points="8.1,9 10,10.9 10,13.8 		"/>
		<circle class="st2" cx="6.7" cy="12.8" r="1.4"/>
		<polyline class="st2" points="7.7,13.8 9.5,15.7 9.5,23.7 		"/>
		<circle class="st2" cx="17.1" cy="12.8" r="1.4"/>
		<polyline class="st2" points="16.2,13.8 13.8,16.1 13.8,17.1 		"/>
	</g>
</g>
<g id="Layer_5" class="st0">
	<g class="st1">
		<path class="st4" d="M10.7,2c0.4-0.3,0.9-0.5,1.4-0.5c1.9,0,3.6,2.7,4.3,6.5"/>
		<path class="st4" d="M7.5,9.9c0.2-2.4,0.8-4.6,1.7-6.1"/>
		<path class="st4" d="M16.6,9.9c0.1,0.8,0.1,1.5,0.1,2.3c0,5.9-2.1,10.7-4.7,10.7c-2.6,0-4.7-4.8-4.7-10.7c0-0.3,0-0.6,0-0.9"/>
		<path class="st4" d="M7.4,14.8c-3.7-2.8-5.7-6-4.6-7.9C4,4.7,9.3,5.2,14.4,8.2c1.6,0.9,3.1,2,4.2,3.1"/>
		<path class="st4" d="M21.6,16.5c0,0.4-0.1,0.8-0.3,1.2c-1.3,2.2-6.5,1.6-11.6-1.3c-0.3-0.2-0.6-0.4-0.9-0.6"/>
		<path class="st4" d="M19.5,12.3c0.4,0.5,0.8,0.9,1.1,1.4"/>
		<path class="st4" d="M6.4,19c1.6-0.1,3.6-0.6,5.6-1.5"/>
		<path class="st4" d="M10.2,7.9C10,8,9.9,8.1,9.7,8.2c-5.1,3-8.3,7.2-7,9.4C3,18,3.3,18.3,3.6,18.5"/>
		<path class="st4" d="M13.9,16.6c0.2-0.1,0.3-0.2,0.5-0.3c5.1-3,8.3-7.2,7-9.4c-1.1-1.9-5-1.8-9.3,0.1"/>
		
			<ellipse transform="matrix(0.8506 -0.5257 0.5257 0.8506 -8.071597e-02 5.5445)" class="st4" cx="9.7" cy="2.9" rx="1.4" ry="1.4"/>
		<ellipse transform="matrix(0.8506 -0.5257 0.5257 0.8506 -9.1281 5.4608)" class="st4" cx="5" cy="18.8" rx="1.4" ry="1.4"/>
		<ellipse transform="matrix(0.8506 -0.5257 0.5257 0.8506 -4.7216 13.498)" class="st4" cx="21.4" cy="15.1" rx="1.4" ry="1.4"/>
		<path class="st4" d="M13.9,12.3c0,1-0.8,1.9-1.9,1.9s-1.9-0.8-1.9-1.9c0-1,0.8-1.9,1.9-1.9C13.1,10.4,13.9,11.2,13.9,12.3z"/>
	</g>
</g>
<g id="Layer_6" class="st0">
	<g class="st1">
		<line class="st4" x1="12.2" y1="1.2" x2="12.2" y2="5.3"/>
		<line class="st4" x1="7.2" y1="2.5" x2="9.3" y2="6.1"/>
		<line class="st4" x1="3.6" y1="6.2" x2="7.1" y2="8.2"/>
		<line class="st4" x1="2.3" y1="11.2" x2="6.3" y2="11.2"/>
		<line class="st4" x1="3.6" y1="16.1" x2="7.1" y2="14.1"/>
		<line class="st4" x1="20.8" y1="16.1" x2="17.3" y2="14.1"/>
		<line class="st4" x1="22.2" y1="11.2" x2="18.1" y2="11.2"/>
		<line class="st4" x1="20.8" y1="6.2" x2="17.3" y2="8.2"/>
		<line class="st4" x1="17.2" y1="2.5" x2="15.2" y2="6.1"/>
		<polyline class="st4" points="14,22 13.6,22 13.1,22.5 12.2,22.5 11.3,22.5 10.9,22 10.4,22 		"/>
		<line class="st4" x1="9.5" y1="18.4" x2="14.9" y2="18.4"/>
		<line class="st4" x1="9.5" y1="20.2" x2="14.9" y2="20.2"/>
		<path class="st4" d="M14.5,17v-0.5c0-0.8,0.3-1.6,0.9-2.1c0.9-0.9,1.4-1.9,1.4-3.3c0-2.5-2-4.5-4.5-4.5c-2.5,0-4.5,2-4.5,4.5
			c0,1.3,0.6,2.4,1.4,3.3C9.7,15,10,15.8,10,16.6V17"/>
		<polyline class="st4" points="10.9,12.5 12.2,13.9 13.6,12.5 		"/>
		<line class="st4" x1="12.2" y1="13.9" x2="12.2" y2="17"/>
		<path class="st5" d="M9.5,11.2c0-1.5,1.2-2.7,2.7-2.7"/>
	</g>
</g>
<g id="Layer_7" class="st0">
	<g class="st1">
		<path class="st2" d="M10.4,14.1v0.5c0,0.6,0.5,1,1,1h2.1c0.6,0,1-0.5,1-1v-1.3c0-0.4-0.3-0.8-0.7-1l-2.7-0.6
			c-0.4-0.1-0.7-0.5-0.7-1V9.4c0-0.6,0.5-1,1-1h2.1c0.6,0,1,0.5,1,1v1"/>
		<line class="st2" x1="12.5" y1="8.4" x2="12.5" y2="6.3"/>
		<line class="st2" x1="12.5" y1="15.7" x2="12.5" y2="17.8"/>
		<path class="st2" d="M7.8,18.9c-1.6-1.2-2.7-3.2-2.7-5.4c0-1.1,0.3-2.2,0.8-3.1l1.4,1.1l0.7-7.4L1,6.5l1.4,1.2
			C1.8,9,1.5,10.5,1.5,12c0,6.1,4.9,11,11,11"/>
		<path class="st2" d="M17.2,5.2c1.6,1.2,2.7,3.2,2.7,5.4c0,1.1-0.3,2.2-0.8,3.1l-1.4-1.1L17,19.9l6.9-2.3l-1.4-1.2
			c0.6-1.3,0.9-2.8,0.9-4.4c0-6.1-4.9-11-11-11"/>
	</g>
</g>
</svg>
