<svg xmlns="http://www.w3.org/2000/svg" viewBox="4338 -154 16.061 16.847">
  <defs>
    <style>
      .cls-1 {
        fill: #fff;
      }
    </style>
  </defs>
  <g id="contact" transform="translate(4326 -154)">
    <g id="Group_335" data-name="Group 335" transform="translate(12)">
      <path id="Path_181" data-name="Path 181" class="cls-1" d="M427.8,223.1" transform="translate(-414.116 -215.758)"/>
      <path id="Path_182" data-name="Path 182" class="cls-1" d="M189.4,300.5" transform="translate(-183.562 -290.61)"/>
      <path id="Path_183" data-name="Path 183" class="cls-1" d="M318.1,223.1" transform="translate(-308.026 -215.758)"/>
      <path id="Path_184" data-name="Path 184" class="cls-1" d="M365.3,223.1" transform="translate(-353.673 -215.758)"/>
      <path id="Path_185" data-name="Path 185" class="cls-1" d="M289.119,21.2,284.4,25.449l2.663,2.4h2.057Z" transform="translate(-275.435 -20.502)"/>
      <path id="Path_186" data-name="Path 186" class="cls-1" d="M44.9,173.2l-1.886-1.7-1.346,1.214L40.319,171.5,35.6,175.746h5.062V173.2Z" transform="translate(-34.823 -165.856)"/>
      <path id="Path_187" data-name="Path 187" class="cls-1" d="M47.731,0H35.6l6.065,5.46Z" transform="translate(-34.823)"/>
      <path id="Path_188" data-name="Path 188" class="cls-1" d="M12,21.2v8.494l4.719-4.246Z" transform="translate(-12 -20.502)"/>
    </g>
    <path id="Path_189" data-name="Path 189" class="cls-1" d="M212.2,241.7v6.766h5.888l2.126,2.126v-2.126h1.458V241.7Z" transform="translate(-193.611 -233.745)"/>
  </g>
</svg>
