<svg xmlns="http://www.w3.org/2000/svg" viewBox="-1478 5634 14.031 14">
  <defs>
    <style>
      .cls-1 {
        fill: #09101d;
      }
    </style>
  </defs>
  <g id="icon_linkedin_blue" transform="translate(-2386 -882)">
    <g id="Group_56" data-name="Group 56" transform="translate(908 6516)">
      <path id="Path_23" data-name="Path 23" class="cls-1" d="M.231,4.649H3.141V14H.231ZM1.687,0A1.685,1.685,0,1,1,0,1.685,1.687,1.687,0,0,1,1.687,0"/>
      <path id="Path_24" data-name="Path 24" class="cls-1" d="M17.332,15.646h2.787v1.278h.04a3.054,3.054,0,0,1,2.752-1.51c2.942,0,3.486,1.936,3.486,4.454V25h-2.9V20.45c0-1.086-.021-2.481-1.512-2.481-1.513,0-1.744,1.181-1.744,2.4V25h-2.9Z" transform="translate(-12.366 -10.997)"/>
    </g>
  </g>
</svg>
