<svg xmlns="http://www.w3.org/2000/svg" viewBox="229 962 20.117 25">
  <defs>
    <style>
      .cls-1 {
        fill: #12213d;
      }
    </style>
  </defs>
  <g id="Group_426" data-name="Group 426" transform="translate(228.9 962.1)">
    <g id="Group_425" data-name="Group 425" transform="translate(0.1 -0.1)">
      <path id="Path_276" data-name="Path 276" class="cls-1" d="M7.172,8.822a5.083,5.083,0,0,1,1.5-3.581.555.555,0,0,0,0-.846.555.555,0,0,0-.846,0A6.261,6.261,0,0,0,6,8.822a6.152,6.152,0,0,0,1.823,4.427l.13.13.521-1.237A4.778,4.778,0,0,1,7.172,8.822Z" transform="translate(-2.159 -1.401)"/>
      <path id="Path_277" data-name="Path 277" class="cls-1" d="M21.742,13.249a6.261,6.261,0,0,0,1.823-4.427A6.152,6.152,0,0,0,21.742,4.4a.555.555,0,0,0-.846,0,.555.555,0,0,0,0,.846,5.083,5.083,0,0,1,1.5,3.581,5.018,5.018,0,0,1-1.237,3.32l.521,1.237A.227.227,0,0,1,21.742,13.249Z" transform="translate(-7.289 -1.401)"/>
      <path id="Path_278" data-name="Path 278" class="cls-1" d="M3.876,13.607a8.721,8.721,0,0,1-2.6-6.25,8.868,8.868,0,0,1,2.6-6.315.555.555,0,0,0,0-.846A.555.555,0,0,0,3.03.2,10.1,10.1,0,0,0,.1,7.357a9.95,9.95,0,0,0,2.93,7.1,10.625,10.625,0,0,0,1.3,1.107l.521-1.172A6.4,6.4,0,0,1,3.876,13.607Z" transform="translate(-0.1 0.065)"/>
      <path id="Path_279" data-name="Path 279" class="cls-1" d="M25.593,14.418a10.1,10.1,0,0,0,2.93-7.161A10.21,10.21,0,0,0,25.593.1a.555.555,0,0,0-.846,0,.555.555,0,0,0,0,.846h0a8.721,8.721,0,0,1,2.6,6.25,8.614,8.614,0,0,1-2.6,6.25c-.26.26-.586.521-.846.781l.521,1.172A5.178,5.178,0,0,0,25.593,14.418Z" transform="translate(-8.405 0.1)"/>
    </g>
    <path id="Path_280" data-name="Path 280" class="cls-1" d="M19.294,26.18H17.927L11.872,12.053A2.515,2.515,0,0,0,13.044,9.9a2.6,2.6,0,1,0-4.1,2.148L3.018,26.18H1.651a.651.651,0,0,0,0,1.3H6.99a.651.651,0,0,0,0-1.3H6.013L6.6,24.813a7.592,7.592,0,0,1,3.906-1.042,8.193,8.193,0,0,1,3.841.977l.586,1.432h-.977a.651.651,0,1,0,0,1.3h5.339a.651.651,0,0,0,0-1.3Zm-7.487-7.161a9.713,9.713,0,0,0-1.367-.13,8.861,8.861,0,0,0-1.367.13l1.367-3.255Zm-1.3,2.995a8.637,8.637,0,0,0-2.93.456l.846-2.018a6.869,6.869,0,0,1,2.018-.26,6.169,6.169,0,0,1,1.953.26l.846,2.018A7.54,7.54,0,0,0,10.505,22.014Z" transform="translate(-0.314 -2.582)"/>
  </g>
</svg>
