<svg xmlns="http://www.w3.org/2000/svg" viewBox="226 891 28.136 25">
  <defs>
    <style>
      .cls-1 {
        fill: #12213d;
      }
    </style>
  </defs>
  <g id="icon_BFSI" transform="translate(226 868.621)">
    <g id="Group_305" data-name="Group 305" transform="translate(0 22.379)">
      <path id="Path_163" data-name="Path 163" class="cls-1" d="M8.176,120.228a17.523,17.523,0,0,0,2.278-.146v-7.927a17.536,17.536,0,0,0-2.278-.146c-4.515,0-8.175,1.66-8.175,3.708v.8C0,118.568,3.661,120.228,8.176,120.228Z" transform="translate(-0.001 -105.73)"/>
      <path id="Path_164" data-name="Path 164" class="cls-1" d="M8.176,218.445a17.558,17.558,0,0,0,2.278-.146v-2.324a17.533,17.533,0,0,1-2.278.147c-3.941,0-7.23-1.265-8-2.948a1.808,1.808,0,0,0-.172.759v.8C0,216.785,3.661,218.445,8.176,218.445Z" transform="translate(-0.001 -199.807)"/>
      <path id="Path_165" data-name="Path 165" class="cls-1" d="M10.453,275.24v-.181a17.528,17.528,0,0,1-2.278.147c-3.941,0-7.23-1.265-8-2.948a1.808,1.808,0,0,0-.172.759v.8c0,2.048,3.66,3.708,8.175,3.708a17.361,17.361,0,0,0,2.583-.189,2.925,2.925,0,0,1-.305-1.3Z" transform="translate(0 -254.752)"/>
      <path id="Path_166" data-name="Path 166" class="cls-1" d="M176.414,22.379c-4.515,0-8.175,1.66-8.175,3.708v.8c0,2.048,3.66,3.708,8.175,3.708s8.175-1.66,8.175-3.708v-.8C184.588,24.039,180.928,22.379,176.414,22.379Z" transform="translate(-156.452 -22.379)"/>
      <path id="Path_167" data-name="Path 167" class="cls-1" d="M176.414,126.492c-3.941,0-7.23-1.265-8-2.948a1.808,1.808,0,0,0-.172.759v.8c0,2.048,3.66,3.708,8.175,3.708s8.175-1.66,8.175-3.708v-.8a1.808,1.808,0,0,0-.172-.759C183.644,125.227,180.354,126.492,176.414,126.492Z" transform="translate(-156.452 -116.456)"/>
      <path id="Path_168" data-name="Path 168" class="cls-1" d="M176.414,185.576c-3.941,0-7.23-1.265-8-2.948a1.808,1.808,0,0,0-.172.759v.8c0,2.048,3.66,3.708,8.175,3.708s8.175-1.66,8.175-3.708v-.8a1.808,1.808,0,0,0-.172-.759C183.644,184.311,180.354,185.576,176.414,185.576Z" transform="translate(-156.452 -171.401)"/>
      <path id="Path_169" data-name="Path 169" class="cls-1" d="M176.414,247.849c-3.941,0-7.23-1.265-8-2.948a1.808,1.808,0,0,0-.172.759v.8c0,2.048,3.66,3.708,8.175,3.708s8.175-1.66,8.175-3.708v-.8a1.808,1.808,0,0,0-.172-.759C183.644,246.584,180.354,247.849,176.414,247.849Z" transform="translate(-156.452 -229.311)"/>
      <path id="Path_170" data-name="Path 170" class="cls-1" d="M176.414,306.932c-3.941,0-7.23-1.265-8-2.948a1.809,1.809,0,0,0-.172.759v.8c0,2.048,3.66,3.708,8.175,3.708s8.175-1.66,8.175-3.708v-.8a1.807,1.807,0,0,0-.172-.759C183.644,305.667,180.354,306.932,176.414,306.932Z" transform="translate(-156.452 -284.255)"/>
    </g>
  </g>
</svg>
