<svg xmlns="http://www.w3.org/2000/svg" viewBox="-1358 5631 16.172 19.433">
  <g id="icon_youtube_blue" transform="translate(-2386 -882)">
    <g id="youtube-logo" transform="translate(761 6127.2)">
      <path id="Path_190" data-name="Path 190" d="M280.692,400.031h-1.078v-.62a.512.512,0,0,1,.512-.512h.081a.512.512,0,0,1,.512.512Zm-4.016-1.348a.455.455,0,0,0-.485.4v3.019a.493.493,0,0,0,.97,0v-3.019c.027-.216-.216-.4-.485-.4Zm6.5-1.671v5.714a2.585,2.585,0,0,1-2.641,2.507H269.641A2.585,2.585,0,0,1,267,402.726v-5.714a2.585,2.585,0,0,1,2.641-2.507H280.53a2.585,2.585,0,0,1,2.641,2.507Zm-12.8,6.334v-6.037h1.348v-.889h-3.585v.889h1.132v6.037Zm4.043-5.121H273.28v3.207a6.573,6.573,0,0,1,0,.782c-.081.243-.512.512-.674.027a6.709,6.709,0,0,1,0-.782v-3.234H271.5v4.2c.027.3.027.647.3.836a1.357,1.357,0,0,0,1.725-.566v.674h.916l-.027-5.148Zm3.612,3.693v-2.668c0-1.024-.755-1.644-1.806-.809v-1.994h-1.132v6.873l.916-.027.081-.431c1.186,1.078,1.941.35,1.941-.943Zm3.5-.35h-.836v.566a.472.472,0,0,1-.458.458h-.162a.472.472,0,0,1-.458-.458v-1.24h1.941v-.728c0-.539-.027-1.051-.054-1.375-.135-.97-1.482-1.105-2.156-.62a1.149,1.149,0,0,0-.458.647,3.237,3.237,0,0,0-.135,1.132v1.59c-.054,2.668,3.153,2.291,2.776.027Zm-4.312-8.679a.822.822,0,0,0,.27.35.771.771,0,0,0,.458.135.815.815,0,0,0,.431-.135.833.833,0,0,0,.323-.4l-.027.431h1.267v-5.337h-1v4.151a.4.4,0,0,1-.809,0v-4.151h-1.024v3.585a7.4,7.4,0,0,0,.027.916.92.92,0,0,0,.081.458Zm-3.8-3.019a4.708,4.708,0,0,1,.135-1.213,1.392,1.392,0,0,1,.458-.7,1.429,1.429,0,0,1,.862-.27,1.641,1.641,0,0,1,.755.162,1.273,1.273,0,0,1,.485.431,2.559,2.559,0,0,1,.243.566,3.71,3.71,0,0,1,.054.862v1.348a9.294,9.294,0,0,1-.054,1.078,1.349,1.349,0,0,1-.243.647,1.227,1.227,0,0,1-.485.431,1.374,1.374,0,0,1-.674.135,1.466,1.466,0,0,1-.728-.135,1.053,1.053,0,0,1-.458-.377,1.957,1.957,0,0,1-.243-.593,5.165,5.165,0,0,1-.081-1.051V389.87Zm.97,2.129a.5.5,0,1,0,1,0v-2.83a.514.514,0,0,0-.485-.539.536.536,0,0,0-.512.539Zm-3.477,1.428h1.186v-4.1l1.4-3.5H272.2l-.755,2.587-.755-2.614h-1.267l1.482,3.5Zm0,0"/>
    </g>
  </g>
</svg>
