<svg xmlns="http://www.w3.org/2000/svg" viewBox="229 1025 22.468 26">
  <defs>
    <style>
      .cls-1 {
        fill: #12213d;
      }
    </style>
  </defs>
  <g id="help-operator" transform="translate(187.432 1025)">
    <g id="Group_308" data-name="Group 308" transform="translate(41.568 0)">
      <path id="Path_172" data-name="Path 172" class="cls-1" d="M64.036,78.712a8.078,8.078,0,0,0-4.421-6.569c-1-.467-2.807-1.38-3.993-1.984A10.254,10.254,0,0,0,57.66,65.4a18.366,18.366,0,0,0,.158-3.905c-.29-4.2-4.531-4.267-4.975-4.262h-.074c-.4-.005-4.69.037-4.982,4.262a18.366,18.366,0,0,0,.158,3.905c.021.112.074.426.176.849a5.412,5.412,0,0,0,3.044,1.815.705.705,0,0,1,.493-.2H53.5a.707.707,0,0,1,0,1.414H51.657a.707.707,0,0,1-.649-.426A7.116,7.116,0,0,1,48.6,67.8a7.526,7.526,0,0,0,1.383,2.362c-1.186.6-2.994,1.517-3.993,1.983a8.079,8.079,0,0,0-4.421,6.569s-.073.773,1.392,1.065a47.817,47.817,0,0,0,19.684,0C64.109,79.485,64.036,78.712,64.036,78.712Z" transform="translate(-41.568 -54.801)"/>
      <path id="Path_173" data-name="Path 173" class="cls-1" d="M109.393,12.105h.446V6.87c0-.013,0-.026,0-.039V6.058a4.465,4.465,0,0,1,1.264-3.32,7.547,7.547,0,0,1,9.467-.016,4.474,4.474,0,0,1,1.273,3.336v.817c0,.008,0,.015,0,.023v5.206h.446a1.986,1.986,0,0,0,1.986-1.986V8.211a1.985,1.985,0,0,0-1.373-1.888V6.059a5.5,5.5,0,0,0-1.592-4.094,8.59,8.59,0,0,0-10.949.013,5.487,5.487,0,0,0-1.586,4.082v.264a1.986,1.986,0,0,0-1.374,1.889v1.908A1.986,1.986,0,0,0,109.393,12.105Z" transform="translate(-104.61 0)"/>
    </g>
  </g>
</svg>
