<svg xmlns="http://www.w3.org/2000/svg" viewBox="-1400 5609 17.227 14">
  <defs>
    <style>
      .cls-1 {
        fill: #fff;
      }
    </style>
  </defs>
  <g id="icon_twitter_white" transform="translate(-2386 -907)">
    <path id="Path_59" data-name="Path 59" class="cls-1" d="M17.227,1.657a7.037,7.037,0,0,1-2.03.557A3.54,3.54,0,0,0,16.751.259a7.052,7.052,0,0,1-2.244.858A3.537,3.537,0,0,0,8.484,4.34,10.029,10.029,0,0,1,1.2.647,3.541,3.541,0,0,0,2.292,5.366a3.5,3.5,0,0,1-1.6-.443v.045A3.537,3.537,0,0,0,3.527,8.434a3.574,3.574,0,0,1-.931.124,3.511,3.511,0,0,1-.664-.064,3.537,3.537,0,0,0,3.3,2.455,7.089,7.089,0,0,1-4.39,1.514A7.277,7.277,0,0,1,0,12.412,10.009,10.009,0,0,0,5.418,14,9.987,9.987,0,0,0,15.473,3.944c0-.152,0-.3-.01-.458A7.179,7.179,0,0,0,17.227,1.657Z" transform="translate(986 6516)"/>
  </g>
</svg>
