<svg xmlns="http://www.w3.org/2000/svg" viewBox="-1465.56 5723 37.56 39.4">
  <defs>
    <style>
      .cls-1 {
        fill: #fff;
      }
    </style>
  </defs>
  <g id="icon_contact" transform="translate(-1477.56 5723)">
    <g id="Group_335" data-name="Group 335" transform="translate(12)">
      <path id="Path_181" data-name="Path 181" class="cls-1" d="M427.8,223.1" transform="translate(-395.797 -205.928)"/>
      <path id="Path_182" data-name="Path 182" class="cls-1" d="M189.4,300.5" transform="translate(-175.746 -277.371)"/>
      <path id="Path_183" data-name="Path 183" class="cls-1" d="M318.1,223.1" transform="translate(-294.54 -205.928)"/>
      <path id="Path_184" data-name="Path 184" class="cls-1" d="M365.3,223.1" transform="translate(-338.107 -205.928)"/>
      <path id="Path_185" data-name="Path 185" class="cls-1" d="M295.437,21.2,284.4,31.137l6.227,5.6h4.811Z" transform="translate(-263.434 -19.568)"/>
      <path id="Path_186" data-name="Path 186" class="cls-1" d="M57.343,175.472l-4.41-3.972-3.148,2.84-3.148-2.84L35.6,181.429H47.438v-5.957Z" transform="translate(-33.784 -158.3)"/>
      <path id="Path_187" data-name="Path 187" class="cls-1" d="M63.97,0H35.6L49.785,12.769Z" transform="translate(-33.784)"/>
      <path id="Path_188" data-name="Path 188" class="cls-1" d="M12,21.2V41.065l11.037-9.929Z" transform="translate(-12 -19.568)"/>
    </g>
    <path id="Path_189" data-name="Path 189" class="cls-1" d="M212.2,241.7v15.825h13.77l4.972,4.972v-4.972h3.41V241.7Z" transform="translate(-184.791 -223.097)"/>
  </g>
</svg>
