<svg xmlns="http://www.w3.org/2000/svg" viewBox="2799.4 -146.448 14.201 17.097">
  <defs>
    <style>
      .cls-1 {
        fill: #12213d;
      }
    </style>
  </defs>
  <g id="left-arrow" transform="translate(2855.274 -146.448) rotate(90)">
    <g id="Group_195" data-name="Group 195" transform="translate(0 41.674)">
      <path id="Path_134" data-name="Path 134" class="cls-1" d="M16.136,47.434l.027.006H4.722l3.6-3.6a.945.945,0,0,0,0-1.328l-.56-.56a.936.936,0,0,0-1.321,0L.272,48.111a.943.943,0,0,0,0,1.326L6.438,55.6a.937.937,0,0,0,1.321,0l.56-.56a.926.926,0,0,0,.273-.661.9.9,0,0,0-.273-.648L4.681,50.109H16.149a.969.969,0,0,0,.948-.959v-.792A.95.95,0,0,0,16.136,47.434Z" transform="translate(0 -41.674)"/>
    </g>
  </g>
</svg>
