<svg xmlns="http://www.w3.org/2000/svg" viewBox="227 1199 26 26">
  <defs>
    <style>
      .cls-1 {
        fill: #12213d;
      }
    </style>
  </defs>
  <g id="airplane-shape" transform="translate(227 1198.998)">
    <path id="Path_176" data-name="Path 176" class="cls-1" d="M24.291,5.251A7.524,7.524,0,0,0,26,1.28a1.469,1.469,0,0,0-.2-.811.648.648,0,0,0-.118-.151.681.681,0,0,0-.139-.108A1.446,1.446,0,0,0,24.72,0a7.5,7.5,0,0,0-3.97,1.709,34.213,34.213,0,0,0-3.909,3.767q-.407.429-.859.9l-3.1-.928.009-.009a.694.694,0,0,0,0-.978l-.559-.56a.7.7,0,0,0-.492-.2.684.684,0,0,0-.491.2l-.837.837-.443-.132a.693.693,0,0,0-.055-.915l-.562-.562a.7.7,0,0,0-.492-.2.679.679,0,0,0-.488.2L7.705,3.9,4.556,2.956a.788.788,0,0,0-.225-.032.834.834,0,0,0-.582.236L2.641,4.267a.653.653,0,0,0-.195.457.636.636,0,0,0,.338.57l6.623,3.7a1.155,1.155,0,0,1,.161.122L11.455,11c-1.766,1.86-3.339,3.662-4.565,5.23-.115.146-.223.288-.329.428L1.437,16.2a.694.694,0,0,0-.088-.005.945.945,0,0,0-.635.262L.2,16.969a.641.641,0,0,0-.2.456A.63.63,0,0,0,.373,18l3.6,1.712a.842.842,0,0,1,.138.1l.3.3a2.187,2.187,0,0,0-.144.693.909.909,0,0,0,.251.664l.013.011,0,0a.912.912,0,0,0,.663.249,2.206,2.206,0,0,0,.687-.143l.3.3a.821.821,0,0,1,.095.135l1.708,3.6A.636.636,0,0,0,8.569,26h0a.641.641,0,0,0,.455-.192l.529-.53a.942.942,0,0,0,.253-.633c0-.029,0-.052,0-.064L9.34,19.44c.14-.106.282-.214.428-.328,1.57-1.228,3.372-2.8,5.229-4.566l1.889,1.891a1.012,1.012,0,0,1,.123.162L20.7,23.21a.644.644,0,0,0,1.031.151l1.115-1.114a.845.845,0,0,0,.228-.582.8.8,0,0,0-.03-.218L22.1,18.3l.768-.769a.694.694,0,0,0,0-.979l-.563-.562a.694.694,0,0,0-.916-.057l-.132-.441.838-.838a.7.7,0,0,0,.2-.491.685.685,0,0,0-.2-.489l-.56-.56a.693.693,0,0,0-.984,0l-.006.005-.928-3.1c.321-.305.625-.6.915-.87A34.085,34.085,0,0,0,24.291,5.251Z"/>
  </g>
</svg>
