<svg xmlns="http://www.w3.org/2000/svg" viewBox="229 1135 21 24.436">
  <defs>
    <style>
      .cls-1 {
        fill: #12213d;
      }
    </style>
  </defs>
  <g id="icon_RML" transform="translate(192.999 1135)">
    <g id="Group_311" data-name="Group 311" transform="translate(36.001)">
      <path id="Path_175" data-name="Path 175" class="cls-1" d="M55.664,6.667a.191.191,0,0,0-.19-.176H52.037V5.536a5.536,5.536,0,1,0-11.073,0v.955H37.528a.191.191,0,0,0-.19.176L36,24.231a.191.191,0,0,0,.19.205H56.81a.191.191,0,0,0,.19-.205ZM42.491,5.536a4.009,4.009,0,0,1,8.018,0v.955H42.491Zm-.764,6.3a1.911,1.911,0,0,1-1.909-1.909,1.8,1.8,0,0,1,1.145-1.75v1.75a.764.764,0,1,0,1.527,0V8.179a1.807,1.807,0,0,1,1.145,1.749A1.911,1.911,0,0,1,41.728,11.836Zm9.545,0a1.911,1.911,0,0,1-1.909-1.909,1.8,1.8,0,0,1,1.145-1.75v1.75a.764.764,0,1,0,1.527,0V8.179a1.807,1.807,0,0,1,1.145,1.749A1.911,1.911,0,0,1,51.273,11.836Z" transform="translate(-36.001)"/>
    </g>
  </g>
</svg>
