<svg xmlns="http://www.w3.org/2000/svg" viewBox="1702 -231 224 27.005">
  <defs>
    <style>
      .cls-1 {
        fill: #004990;
      }
    </style>
  </defs>
  <g id="Group_404" data-name="Group 404" transform="translate(1702 -231)">
    <path id="Path_1" data-name="Path 1" class="cls-1" d="M56.357,24.259l3.821-4.1a25.531,25.531,0,0,1-7.125,1.363c-6.1,0-7.824-3.3-7.8-6.061.021-4.338,3.721-8.636,9.556-8.636,3.693,0,5.506,1.39,6.433,2.385l2.444-5.279c-3.318-2.148-8.373-2.163-9.306-2.163-11.55,0-17.527,6.689-17.527,14.042,0,5.943,4.446,10.583,12.666,10.583a28.507,28.507,0,0,0,5.639-.863Z" transform="translate(12.729 0.611)"/>
    <path id="Path_2" data-name="Path 2" class="cls-1" d="M39.6,24.259l3.834-4.1a25.617,25.617,0,0,1-7.145,1.363c-6.077,0-7.81-3.3-7.8-6.061.021-4.338,3.721-8.636,9.557-8.636,3.692,0,5.505,1.39,6.439,2.385l2.437-5.279c-3.311-2.148-8.354-2.163-9.293-2.163C26.081,1.769,20.1,8.458,20.1,15.811c0,5.943,4.442,10.583,12.66,10.583a28.706,28.706,0,0,0,5.648-.863Z" transform="translate(6.942 0.611)"/>
    <path id="Path_3" data-name="Path 3" class="cls-1" d="M19.4,2.3H7.216L0,25.579H8.518L10.9,18.031a33.733,33.733,0,0,0,4.762.386c2.32,0,5.7-.188,8.6-2.1a9.109,9.109,0,0,0,3.983-6.938C28.4,4.694,23.537,2.3,19.4,2.3m.208,8.216A4.149,4.149,0,0,1,15.9,13.273a8.4,8.4,0,0,1-3.463-.214L14.1,7.515h2.824c1.483,0,3.257,1,2.679,3" transform="translate(0 0.795)"/>
    <path id="Path_4" data-name="Path 4" class="cls-1" d="M81.253,25.566H72.362L72.127,14.5,66.3,25.566H56.373l.578-23.273H65l-.934,13.475,8.14-13.475h6.1l.9,13.552,6.15-13.552h8.67Z" transform="translate(19.474 0.792)"/>
    <path id="Path_5" data-name="Path 5" class="cls-1" d="M95.208,11.27c-.36-1.3-1.081-2.621-2.6-2.621a2.2,2.2,0,0,0-2.286,2.164c0,3.682,8.8,1.276,8.8,8.252,0,2.286-1.732,5.7-6.35,5.7-3.561,0-6.136-1.732-6.713-5.388l3.754-.553c.336,1.589,1.155,2.767,2.935,2.767,1.466,0,2.694-.77,2.694-2.382,0-3.753-8.806-1.589-8.806-7.963a5.892,5.892,0,0,1,6.089-5.773,5.609,5.609,0,0,1,5.868,5.2Z" transform="translate(29.73 1.89)"/>
    <path id="Path_6" data-name="Path 6" class="cls-1" d="M96.775,16.4c0-3.586,1.973-7.025,5.918-7.025s5.918,3.439,5.918,7.025c0,3.559-2,7.023-5.918,7.023s-5.918-3.464-5.918-7.023m8.179,0c0-1.684-.336-4.4-2.261-4.4s-2.261,2.718-2.261,4.4.338,4.4,2.261,4.4,2.261-2.718,2.261-4.4" transform="translate(33.43 3.237)"/>
    <rect id="Rectangle_3" data-name="Rectangle 3" class="cls-1" width="3.561" height="18.717" transform="translate(143.818 7.651)"/>
    <path id="Path_7" data-name="Path 7" class="cls-1" d="M118.985,21.662a6.486,6.486,0,0,1-4.018,1.683c-1.468,0-3.536-.89-3.536-4.209V9.585h3.561v8.107c0,1.083-.072,2.791,1.466,2.791a3.685,3.685,0,0,0,2.527-1.468V9.585h3.561V23.057h-3.561Z" transform="translate(38.493 3.311)"/>
    <path id="Path_8" data-name="Path 8" class="cls-1" d="M125.842,10.45h2.766v2.96h-2.766v6.856c0,.649.192,1.323,1.347,1.323a2.52,2.52,0,0,0,1.419-.506V23.8a8.284,8.284,0,0,1-2.285.409c-2.213,0-4.042-1.251-4.042-4.185V13.41H120.62V10.45h1.661V7.081h3.561Z" transform="translate(41.667 2.446)"/>
    <path id="Path_9" data-name="Path 9" class="cls-1" d="M131.1,8.958h-3.561V5.687H131.1Zm0,15.446h-3.561V10.932H131.1Z" transform="translate(44.056 1.964)"/>
    <path id="Path_10" data-name="Path 10" class="cls-1" d="M131.485,16.4c0-3.586,1.972-7.025,5.918-7.025s5.917,3.439,5.917,7.025c0,3.559-2,7.023-5.917,7.023s-5.918-3.464-5.918-7.023m8.179,0c0-1.684-.338-4.4-2.261-4.4s-2.261,2.718-2.261,4.4.336,4.4,2.261,4.4,2.261-2.718,2.261-4.4" transform="translate(45.42 3.237)"/>
    <path id="Path_11" data-name="Path 11" class="cls-1" d="M145.108,11.053a6.492,6.492,0,0,1,4.018-1.682c1.469,0,3.537.89,3.537,4.21v9.55H149.1V15.024c0-1.083.075-2.791-1.466-2.791a3.682,3.682,0,0,0-2.527,1.468v9.43h-3.56V9.659h3.56Z" transform="translate(48.897 3.237)"/>
    <path id="Path_12" data-name="Path 12" class="cls-1" d="M157.567,13.6c-.17-.938-.481-1.611-1.54-1.611a1.415,1.415,0,0,0-1.443,1.491c0,2.309,6.518.625,6.518,5.677,0,2.863-2.381,4.257-5.123,4.257-2.767,0-4.522-1.347-4.884-4.137l3.344-.36c.072.962.577,1.876,1.659,1.876.889,0,1.732-.409,1.732-1.444,0-2.357-6.518-.432-6.518-5.677,0-2.719,2.333-4.305,4.955-4.305a4.561,4.561,0,0,1,4.667,3.824Z" transform="translate(52.194 3.237)"/>
    <path id="Path_13" data-name="Path 13" class="cls-1" d="M159.561,4.659a4.66,4.66,0,1,1,4.662,4.664,4.664,4.664,0,0,1-4.662-4.664m8.611,0a3.949,3.949,0,0,0-7.9,0,3.949,3.949,0,1,0,7.9,0m-3.856-2.806c1.6,0,1.943.9,1.943,1.636a1.517,1.517,0,0,1-1.311,1.473l1.194,2.717h-.781l-1.139-2.612h-1.142V7.679h-.712V1.853Zm-1.31,2.577h.942c1.185,0,1.382-.411,1.382-.953,0-.75-.482-.992-1.253-.992h-1.071Z" transform="translate(55.119)"/>
  </g>
</svg>
