<?xml version="1.0" encoding="utf-8"?>
<!-- Generator: Adobe Illustrator 22.0.1, SVG Export Plug-In . SVG Version: 6.00 Build 0)  -->
<svg version="1.1" xmlns="http://www.w3.org/2000/svg" xmlns:xlink="http://www.w3.org/1999/xlink" x="0px" y="0px"
	 viewBox="0 0 25 30" style="enable-background:new 0 0 25 30;" xml:space="preserve">
<style type="text/css">
	.st0{display:none;}
	.st1{display:inline;}
	.st2{fill:none;stroke:#12213D;stroke-miterlimit:10;}
	.st3{display:inline;fill:none;}
	.st4{fill:none;stroke:#12213D;stroke-linejoin:round;stroke-miterlimit:10;}
	.st5{fill:none;stroke:#12213D;stroke-linecap:round;stroke-linejoin:round;stroke-miterlimit:10;}
</style>
<g id="Layer_1" class="st0">
	<g class="st1">
		<path class="st2" d="M12.9,11.8l5,0c2.2,0,4-1.8,4-4c0-2.2-1.8-4-4-4c-0.2,0-0.4,0-0.5,0c-0.2-2-1.9-3.6-4-3.6
			c-0.5,0-1,0.1-1.4,0.3C11.5-1.5,9.7-3,7.5-3C5-3,2.9-0.9,2.9,1.7c0,0.1,0,0.1,0,0.2c-2.3,0.5-4,2.5-4,4.9c0,2.8,2.3,5,5,5h4"/>
		<line class="st2" x1="10.4" y1="14.4" x2="10.4" y2="5.3"/>
		<polyline class="st2" points="6.9,8.8 10.4,5.3 14,8.8 		"/>
	</g>
	<rect id="_x3C_Slice_x3E_" x="-2" y="-4" class="st3" width="25" height="19"/>
</g>
<g id="Layer_2" class="st0">
	<g class="st1">
		<circle class="st2" cx="10.5" cy="8.1" r="4.4"/>
		<circle class="st2" cx="10.5" cy="-1.8" r="1.6"/>
		<circle class="st2" cx="10.5" cy="17.9" r="1.6"/>
		<path class="st2" d="M20.9-0.2c0,0.9-0.7,1.6-1.6,1.6c-0.9,0-1.6-0.7-1.6-1.6c0-0.9,0.7-1.6,1.6-1.6C20.2-1.8,20.9-1.1,20.9-0.2z"
			/>
		<path class="st2" d="M22,8.1c0,0.9-0.7,1.6-1.6,1.6c-0.9,0-1.6-0.7-1.6-1.6c0-0.9,0.7-1.6,1.6-1.6C21.3,6.4,22,7.1,22,8.1z"/>
		<path class="st2" d="M2.3,8.1c0,0.9-0.7,1.6-1.6,1.6C-0.3,9.7-1,9-1,8.1c0-0.9,0.7-1.6,1.6-1.6C1.6,6.4,2.3,7.1,2.3,8.1z"/>
		<path class="st2" d="M3.4-0.2c0,0.9-0.7,1.6-1.6,1.6c-0.9,0-1.6-0.7-1.6-1.6c0-0.9,0.7-1.6,1.6-1.6C2.6-1.8,3.4-1.1,3.4-0.2z"/>
		<path class="st2" d="M20.9,16.3c0,0.9-0.7,1.6-1.6,1.6c-0.9,0-1.6-0.7-1.6-1.6c0-0.9,0.7-1.6,1.6-1.6
			C20.2,14.6,20.9,15.4,20.9,16.3z"/>
		<path class="st2" d="M3.4,16.3c0,0.9-0.7,1.6-1.6,1.6c-0.9,0-1.6-0.7-1.6-1.6c0-0.9,0.7-1.6,1.6-1.6C2.6,14.6,3.4,15.4,3.4,16.3z"
			/>
		<line class="st2" x1="10.5" y1="-0.2" x2="10.5" y2="2.6"/>
		<line class="st2" x1="10.5" y1="13.5" x2="10.5" y2="16.3"/>
		<line class="st2" x1="2.8" y1="0.9" x2="6.1" y2="4.2"/>
		<line class="st2" x1="18.2" y1="0.9" x2="14.9" y2="4.2"/>
		<line class="st2" x1="2.8" y1="15.2" x2="6.1" y2="11.9"/>
		<line class="st2" x1="18.2" y1="15.2" x2="14.9" y2="11.9"/>
		<line class="st2" x1="2.3" y1="8.1" x2="5" y2="8.1"/>
		<line class="st2" x1="16" y1="8.1" x2="18.7" y2="8.1"/>
	</g>
</g>
<g id="Layer_3" class="st0">
	<g class="st1">
		<path class="st4" d="M12.6,2.1L11.7,0l-1.3,0.4c-0.4-0.5-0.8-0.9-1.3-1.3l0.4-1.3L7.5-3L6.9-1.8c-0.6-0.1-1.2-0.1-1.8,0L4.5-3
			L2.4-2.1l0.4,1.3C2.3-0.5,1.9-0.1,1.6,0.4L0.3,0l-0.9,2.1l1.2,0.6c-0.1,0.6-0.1,1.2,0,1.8l-1.2,0.6l0.9,2.1l1.3-0.4
			C1.9,7.3,2.3,7.7,2.8,8L2.4,9.3l2.1,0.9L5.1,9c0.6,0.1,1.2,0.1,1.8,0l0.6,1.2l2.1-0.9L9.2,8c0.5-0.4,0.9-0.8,1.3-1.3l1.3,0.4
			l0.9-2.1l-1.2-0.6c0.1-0.6,0.1-1.2,0-1.8L12.6,2.1z"/>
		<circle class="st4" cx="6.1" cy="3.7" r="2.2"/>
		<path class="st4" d="M21.8,10.6l-0.7-1.7l-1,0.3c-0.3-0.4-0.6-0.7-1-1l0.3-1l-1.7-0.7l-0.5,1c-0.5-0.1-0.9-0.1-1.4,0l-0.5-1
			l-1.7,0.7l0.3,1c-0.4,0.3-0.7,0.6-1,1l-1-0.3l-0.7,1.7l1,0.5c-0.1,0.5-0.1,0.9,0,1.4l-1,0.5l0.7,1.7l1-0.3c0.3,0.4,0.6,0.7,1,1
			l-0.3,1l1.7,0.7l0.5-1c0.5,0.1,0.9,0.1,1.4,0l0.5,1l1.7-0.7l-0.3-1c0.4-0.3,0.7-0.6,1-1l1,0.3l0.7-1.7l-1-0.5
			c0.1-0.5,0.1-0.9,0-1.4L21.8,10.6z"/>
		<path class="st4" d="M18.3,11.8c0,1-0.8,1.7-1.7,1.7c-1,0-1.7-0.8-1.7-1.7s0.8-1.7,1.7-1.7C17.5,10.1,18.3,10.9,18.3,11.8z"/>
	</g>
</g>
<g id="Layer_4" class="st0">
	<g class="st1">
		<path class="st2" d="M17.7,14.1h2.5c0.3,0,0.5-0.3,0.3-0.6c-0.2-0.4-0.4-0.7-0.3-0.8c0-0.2,0.3-0.2,0.9-0.6
			c0.6-0.4,0.6-0.9,0.3-1.3c-0.3-0.4-1.9-2.6-2-3.2c0-0.4,0.5-1.5,0.1-3.2c-0.4-1.7-2.4-7.2-9.7-7C2.6-2.4-0.6,2.5-0.6,6.1
			c0,3.5,1.8,5.2,2.4,7c0.8,2.3,1.2,4.9-0.3,7.9"/>
		<path class="st2" d="M13,21c0.3-1.4,1-2.5,1.5-2.8"/>
		<path class="st2" d="M12,15.1c0.5,1.4,0.9,2.6,1.3,2.7c0.7,0.2,3.5,1,4.5,0.6c1-0.4,0.8-1.4,0.9-1.6c0-0.7,0.7-0.8,0.6-1.7"/>
		<circle class="st2" cx="4.7" cy="3.7" r="1.6"/>
		<circle class="st2" cx="15.1" cy="3.7" r="1.6"/>
		<circle class="st2" cx="9.9" cy="1.1" r="1.6"/>
		<line class="st2" x1="9.9" y1="2.6" x2="9.9" y2="17.8"/>
		<polyline class="st2" points="14.1,4.7 12,6.8 12,9.9 		"/>
		<polyline class="st2" points="5.7,4.7 7.8,6.8 7.8,9.9 		"/>
		<circle class="st2" cx="4.1" cy="8.9" r="1.6"/>
		<polyline class="st2" points="5.2,9.9 7.3,12 7.3,20.9 		"/>
		<circle class="st2" cx="15.6" cy="8.9" r="1.6"/>
		<polyline class="st2" points="14.6,9.9 12,12.5 12,13.6 		"/>
	</g>
</g>
<g id="Layer_5" class="st0">
	<g class="st1">
		<path class="st4" d="M8.1-2.4C8.6-2.8,9.2-3,9.7-3c2.2,0,4,3,4.8,7.3"/>
		<path class="st4" d="M4.6,6.4c0.3-2.7,0.9-5.1,1.8-6.8"/>
		<path class="st4" d="M14.8,6.4c0.1,0.8,0.1,1.7,0.1,2.6c0,6.6-2.3,12-5.2,12c-2.9,0-5.2-5.4-5.2-12c0-0.4,0-0.7,0-1"/>
		<path class="st4" d="M4.5,11.8C0.4,8.7-1.9,5.1-0.7,3c1.4-2.5,7.3-1.8,13,1.5C14.1,5.6,15.7,6.8,17,8"/>
		<path class="st4" d="M20.4,13.7c0,0.5-0.1,0.9-0.3,1.3c-1.4,2.5-7.3,1.8-13-1.5c-0.4-0.2-0.7-0.4-1-0.6"/>
		<path class="st4" d="M18,9c0.5,0.5,0.9,1,1.2,1.5"/>
		<path class="st4" d="M3.5,16.5c1.8-0.1,4-0.6,6.3-1.7"/>
		<path class="st4" d="M7.6,4.2C7.4,4.3,7.3,4.4,7.1,4.5c-5.7,3.3-9.2,8-7.8,10.5c0.2,0.4,0.6,0.7,1,1"/>
		<path class="st4" d="M11.8,13.8c0.2-0.1,0.3-0.2,0.5-0.3c5.7-3.3,9.2-8,7.8-10.5c-1.2-2.1-5.6-2-10.4,0.2"/>
		<ellipse transform="matrix(0.8506 -0.5257 0.5257 0.8506 1.8006 3.5219)" class="st4" cx="7.1" cy="-1.4" rx="1.6" ry="1.6"/>
		<ellipse transform="matrix(0.8506 -0.5257 0.5257 0.8506 -8.2929 3.4285)" class="st4" cx="1.9" cy="16.3" rx="1.6" ry="1.6"/>
		<ellipse transform="matrix(0.8506 -0.5257 0.5257 0.8506 -3.3769 12.395)" class="st4" cx="20.1" cy="12.1" rx="1.6" ry="1.6"/>
		<path class="st4" d="M11.8,9c0,1.2-0.9,2.1-2.1,2.1S7.6,10.2,7.6,9c0-1.2,0.9-2.1,2.1-2.1C10.9,6.9,11.8,7.9,11.8,9z"/>
	</g>
</g>
<g id="Layer_6" class="st0">
	<g class="st1">
		<line class="st4" x1="10.5" y1="-3.8" x2="10.5" y2="0.9"/>
		<line class="st4" x1="4.8" y1="-2.2" x2="7.1" y2="1.8"/>
		<line class="st4" x1="0.5" y1="2" x2="4.6" y2="4.3"/>
		<line class="st4" x1="-1" y1="7.7" x2="3.7" y2="7.7"/>
		<line class="st4" x1="0.5" y1="13.5" x2="4.6" y2="11.1"/>
		<line class="st4" x1="20.5" y1="13.5" x2="16.4" y2="11.1"/>
		<line class="st4" x1="22" y1="7.7" x2="17.3" y2="7.7"/>
		<line class="st4" x1="20.5" y1="2" x2="16.4" y2="4.3"/>
		<line class="st4" x1="16.3" y1="-2.2" x2="13.9" y2="1.8"/>
		<polyline class="st4" points="12.6,20.3 12.1,20.3 11.5,20.8 10.5,20.8 9.5,20.8 8.9,20.3 8.4,20.3 		"/>
		<line class="st4" x1="7.4" y1="16.1" x2="13.6" y2="16.1"/>
		<line class="st4" x1="7.4" y1="18.2" x2="13.6" y2="18.2"/>
		<path class="st4" d="M13.1,14.5V14c0-0.9,0.3-1.8,1-2.5c1-1,1.6-2.3,1.6-3.8c0-2.9-2.3-5.2-5.2-5.2c-2.9,0-5.2,2.3-5.2,5.2
			c0,1.5,0.6,2.8,1.6,3.8c0.7,0.7,1,1.5,1,2.5v0.5"/>
		<polyline class="st4" points="8.9,9.3 10.5,10.9 12.1,9.3 		"/>
		<line class="st4" x1="10.5" y1="10.9" x2="10.5" y2="14.5"/>
		<path class="st5" d="M7.4,7.7c0-1.7,1.4-3.1,3.1-3.1"/>
	</g>
</g>
<g id="Layer_7" class="st0">
	<g class="st1">
		<path class="st2" d="M8.4,10.1v0.5c0,0.6,0.5,1,1,1h2.1c0.6,0,1-0.5,1-1V9.3c0-0.4-0.3-0.8-0.7-1L9.1,7.8c-0.4-0.1-0.7-0.5-0.7-1
			V5.4c0-0.6,0.5-1,1-1h2.1c0.6,0,1,0.5,1,1v1"/>
		<line class="st2" x1="10.5" y1="4.4" x2="10.5" y2="2.3"/>
		<line class="st2" x1="10.5" y1="11.7" x2="10.5" y2="13.8"/>
		<path class="st2" d="M5.8,14.9c-1.6-1.2-2.7-3.2-2.7-5.4c0-1.1,0.3-2.2,0.8-3.1l1.4,1.1l0.7-7.4L-1,2.5l1.4,1.2
			C-0.2,5-0.5,6.5-0.5,8c0,6.1,4.9,11,11,11"/>
		<path class="st2" d="M15.2,1.2c1.6,1.2,2.7,3.2,2.7,5.4c0,1.1-0.3,2.2-0.8,3.1l-1.4-1.1L15,15.9l6.9-2.3l-1.4-1.2
			c0.6-1.3,0.9-2.8,0.9-4.4c0-6.1-4.9-11-11-11"/>
	</g>
</g>
<g id="Layer_8" class="st0">
	<g class="st1">
		<path class="st2" d="M17.3,5.9c2-2,2-5.2,0-7.2"/>
		<path class="st2" d="M15,4.1c1-1,1-2.6,0-3.6"/>
		<path class="st2" d="M19.7,7.3c2.8-2.8,2.8-7.2,0-10"/>
		<path class="st2" d="M4,5.9c-2-2-2-5.2,0-7.2"/>
		<path class="st2" d="M6.3,4.1c-1-1-1-2.6,0-3.6"/>
		<path class="st2" d="M1.6,7.3c-2.8-2.8-2.8-7.2,0-10"/>
		<path class="st2" d="M12.2,2.4c0,0.9-0.7,1.7-1.7,1.7C9.6,4,8.9,3.3,8.9,2.4s0.7-1.7,1.7-1.7C11.5,0.7,12.2,1.5,12.2,2.4z"/>
		<line class="st2" x1="10.5" y1="4" x2="10.5" y2="20"/>
		<line class="st2" x1="9.4" y1="4" x2="3.4" y2="17.2"/>
		<line class="st2" x1="11.7" y1="4" x2="17.7" y2="17.2"/>
		<line class="st2" x1="6.7" y1="11.2" x2="10.5" y2="13.4"/>
		<line class="st2" x1="5" y1="15" x2="10.5" y2="17.8"/>
		<line class="st2" x1="7.8" y1="7.3" x2="10.5" y2="9"/>
		<line class="st2" x1="14.4" y1="11.2" x2="10.5" y2="13.4"/>
		<line class="st2" x1="16.1" y1="15" x2="10.5" y2="17.8"/>
		<line class="st2" x1="13.3" y1="7.3" x2="10.5" y2="9"/>
	</g>
</g>
<g id="Layer_9" class="st0">
	<g class="st1">
		<path class="st2" d="M17.1,6.4v-3c0-3.1-3.1-6.4-7-6.4S3,0.3,3,3.4v1.4"/>
		<path class="st2" d="M15,6.9V8c0,1.5-0.6,3.1-2.1,4.1"/>
		<path class="st2" d="M7.2,0.1c0,2.9,5.9,6.8,8.9,6.8"/>
		<path class="st2" d="M7.2,2.7C5.9,3.3,4.6,4.6,4.6,6.4V8c0,1.8,1.4,3.7,3.5,4.6"/>
		<path class="st2" d="M11.9,14.2c0,0.6-0.5,1-1,1h-0.5c-0.6,0-1-0.5-1-1l0,0c0-0.6,0.5-1,1-1h0.5C11.4,13.2,11.9,13.6,11.9,14.2
			L11.9,14.2z"/>
		<path class="st2" d="M11.4,14.2h0.5c2.9,0,5.2-2,5.2-4.7"/>
		<path class="st2" d="M18.1,4.8h-1v4.7h1c0.6,0,1-0.5,1-1V5.9C19.2,5.3,18.7,4.8,18.1,4.8z"/>
		<path class="st2" d="M2,4.8h1v4.7H2c-0.6,0-1-0.5-1-1V5.9C0.9,5.3,1.4,4.8,2,4.8z"/>
		<line class="st2" x1="6.7" y1="11.6" x2="6.7" y2="15.8"/>
		
			<rect x="6.6" y="15.3" transform="matrix(0.7071 -0.7071 0.7071 0.7071 -10.3765 10.6881)" class="st2" width="2.2" height="5.2"/>
		
			<rect x="10.3" y="16.8" transform="matrix(0.7071 -0.7071 0.7071 0.7071 -8.8483 14.3774)" class="st2" width="5.2" height="2.2"/>
		<path class="st2" d="M5.1,16.8l-3,0.7c-1.1,0.2-1.9,1-2.3,2.1L-0.6,21"/>
		<path class="st2" d="M15.5,16.8l3,0.7c1.1,0.2,1.9,1,2.3,2.1l0.5,1.4"/>
	</g>
</g>
<g id="Layer_10" class="st0">
	<g class="st1">
		<polyline class="st2" points="6.5,-0.9 6.5,-3 15.1,-3 15.1,-0.9 		"/>
		<rect x="9.7" y="15.7" class="st2" width="2.7" height="4.3"/>
		<polyline class="st2" points="7.6,8.7 7.6,6.6 9.7,6.6 9.7,8.7 		"/>
		<polyline class="st2" points="7.6,13 7.6,10.9 9.7,10.9 9.7,13 		"/>
		<polyline class="st2" points="12.4,8.7 12.4,6.6 14.5,6.6 14.5,8.7 		"/>
		<polyline class="st2" points="7.6,4.5 7.6,2.3 9.7,2.3 9.7,4.5 		"/>
		<polyline class="st2" points="12.4,4.5 12.4,2.3 14.5,2.3 14.5,4.5 		"/>
		<polyline class="st2" points="12.4,13 12.4,10.9 14.5,10.9 14.5,13 		"/>
		<polyline class="st2" points="3.3,19.9 -0.4,19.9 -0.4,5.5 3.3,5.5 		"/>
		<polyline class="st2" points="1.2,5.5 1.2,3.4 3.3,3.4 		"/>
		<polyline class="st2" points="18.8,19.9 22,19.9 22,10.9 18.8,10.9 		"/>
		<polyline class="st2" points="20.9,10.9 20.9,8.7 18.8,8.7 		"/>
		<rect x="4.9" y="-0.9" class="st2" width="12.3" height="20.8"/>
	</g>
</g>
<g id="Layer_12">
	<g>
		<path class="st2" d="M15.9,11.7V5.9c0-2.8-2.4-5.1-5.4-5.1S5.1,3.1,5.1,5.9v5.8"/>
		<path class="st2" d="M22,8.5V5.9c0-2.8-2.4-5.1-5.4-5.1c-0.5,0-0.9,0.1-1.3,0.2"/>
		<polyline class="st2" points="9.8,16.2 9.8,8.5 1,8.5 1,29.1 19.9,29.1 19.9,8.5 11.8,8.5 		"/>
		<polygon class="st2" points="19.9,8.5 19.9,29.1 20.6,29.1 22,27.8 23.3,29.1 24,29.1 24,8.5 		"/>
		<polygon class="st2" points="10.5,17.5 12.5,19.5 12.5,24.6 7.1,24.6 7.1,19.5 9.1,17.5 		"/>
		<line class="st2" x1="3.7" y1="11.7" x2="6.4" y2="11.7"/>
		<line class="st2" x1="14.5" y1="11.7" x2="17.2" y2="11.7"/>
	</g>
</g>
</svg>
