<svg xmlns="http://www.w3.org/2000/svg" viewBox="1976.8 1006.8 20.4 26.722">
  <defs>
    <style>
      .cls-1 {
        fill: #0a2240;
        stroke: #0a2240;
        stroke-width: 0.4px;
      }
    </style>
  </defs>
  <g id="Group_10" data-name="Group 10" transform="translate(1977 1007)">
    <path id="Path_9" data-name="Path 9" class="cls-1" d="M29,89.232a.308.308,0,0,0-.308.308v6.8l-5.969-3.748a.309.309,0,0,0-.328,0l-5.969,3.748v-6.8a.308.308,0,1,0-.617,0v7.354a.309.309,0,0,0,.472.261l6.277-3.942,6.277,3.942a.309.309,0,0,0,.472-.261V89.54A.308.308,0,0,0,29,89.232Z" transform="translate(-12.559 -70.887)"/>
    <path id="Path_10" data-name="Path 10" class="cls-1" d="M19.364,8.83a1.27,1.27,0,0,1-.244-1.253l.144-.339a1.288,1.288,0,0,0-.682-1.687l-.422-.179A1.305,1.305,0,0,1,17.448,4.3V3.837a1.288,1.288,0,0,0-1.286-1.286h-.368a1.27,1.27,0,0,1-1.058-.714L14.6,1.5A1.287,1.287,0,0,0,12.923.785L12.5.957a1.045,1.045,0,0,1-.386.068A1.294,1.294,0,0,1,11.234.7L10.909.376a1.289,1.289,0,0,0-1.819,0l-.26.26a1.261,1.261,0,0,1-.855.317,1.029,1.029,0,0,1-.4-.073L7.238.736a1.288,1.288,0,0,0-1.687.681l-.179.422A1.305,1.305,0,0,1,4.3,2.551H3.838A1.288,1.288,0,0,0,2.552,3.837v.368a1.27,1.27,0,0,1-.714,1.058L1.5,5.4A1.289,1.289,0,0,0,.786,7.076L.958,7.5A1.306,1.306,0,0,1,.7,8.766L.376,9.09a1.288,1.288,0,0,0,0,1.819l.26.26A1.27,1.27,0,0,1,.88,12.422l-.144.339a1.288,1.288,0,0,0,.682,1.687l.422.179A1.305,1.305,0,0,1,2.552,15.7v.458a1.294,1.294,0,0,0,.918,1.227,1.263,1.263,0,0,0,.369.059h.368a1.271,1.271,0,0,1,1.058.714L5.4,18.5a1.288,1.288,0,0,0,1.675.711l.425-.172a1.046,1.046,0,0,1,.386-.068,1.294,1.294,0,0,1,.879.325l.324.324a1.289,1.289,0,0,0,1.819,0l.26-.26a1.26,1.26,0,0,1,.855-.317,1.03,1.03,0,0,1,.4.073l.339.144a1.272,1.272,0,0,0,.5.1,1.286,1.286,0,0,0,1.187-.783l.179-.422a1.305,1.305,0,0,1,1.076-.712h.458a1.263,1.263,0,0,0,.369-.059,1.294,1.294,0,0,0,.918-1.227v-.368a1.27,1.27,0,0,1,.714-1.058L18.5,14.6a1.288,1.288,0,0,0,.711-1.675l-.172-.425a1.306,1.306,0,0,1,.257-1.265l.324-.324a1.288,1.288,0,0,0,0-1.819Zm-.176,1.643-.324.324a1.908,1.908,0,0,0-.393,1.932l.172.425a.67.67,0,0,1-.37.872l-.341.138a1.872,1.872,0,0,0-1.1,1.63v.368a.673.673,0,0,1-.479.637.651.651,0,0,1-.19.033H15.7a1.908,1.908,0,0,0-1.644,1.088l-.179.422a.67.67,0,0,1-.619.408A.659.659,0,0,1,13,18.7l-.339-.144a1.65,1.65,0,0,0-.639-.122,1.877,1.877,0,0,0-1.291.5l-.26.26a.688.688,0,0,1-.947,0L9.2,18.863a1.911,1.911,0,0,0-1.315-.506,1.64,1.64,0,0,0-.617.113l-.425.172a.66.66,0,0,1-.248.048.677.677,0,0,1-.624-.418l-.138-.341a1.873,1.873,0,0,0-1.63-1.1H3.838a.651.651,0,0,1-.19-.033.673.673,0,0,1-.479-.637V15.7A1.908,1.908,0,0,0,2.08,14.059l-.422-.179A.671.671,0,0,1,1.3,13l.144-.339a1.872,1.872,0,0,0-.375-1.93l-.26-.26a.67.67,0,0,1,0-.947L1.136,9.2A1.908,1.908,0,0,0,1.529,7.27l-.172-.425a.672.672,0,0,1,.37-.872l.341-.138a1.873,1.873,0,0,0,1.1-1.63V3.837a.67.67,0,0,1,.67-.67H4.3A1.908,1.908,0,0,0,5.94,2.08l.179-.422a.67.67,0,0,1,.619-.408A.659.659,0,0,1,7,1.3l.339.144a1.65,1.65,0,0,0,.639.122,1.879,1.879,0,0,0,1.292-.5l.26-.26a.688.688,0,0,1,.947,0l.324.324a1.911,1.911,0,0,0,1.315.506,1.641,1.641,0,0,0,.617-.113l.424-.172a.661.661,0,0,1,.248-.048.677.677,0,0,1,.624.419l.138.341a1.873,1.873,0,0,0,1.63,1.1h.368a.67.67,0,0,1,.67.67V4.3A1.908,1.908,0,0,0,17.92,5.94l.422.179A.67.67,0,0,1,18.7,7l-.144.339a1.873,1.873,0,0,0,.375,1.93l.26.26A.67.67,0,0,1,19.188,10.473Z"/>
    <path id="Path_11" data-name="Path 11" class="cls-1" d="M19.452,11.894A7.546,7.546,0,1,0,24.8,14.1,7.506,7.506,0,0,0,19.452,11.894Zm4.907,12.462a6.949,6.949,0,1,1,2.029-4.908A6.893,6.893,0,0,1,24.359,24.356Z" transform="translate(-9.452 -9.449)"/>
  </g>
</svg>
