<svg xmlns="http://www.w3.org/2000/svg" viewBox="795.8 830.8 13.334 18.4">
  <defs>
    <style>
      .cls-1 {
        fill: #0a2240;
        stroke: #0a2240;
        stroke-width: 0.4px;
      }
    </style>
  </defs>
  <g id="Group_1" data-name="Group 1" transform="translate(796 831)">
    <path id="Path_1" data-name="Path 1" class="cls-1" d="M12.6,8.376a4.22,4.22,0,1,0,4.22,4.221A4.226,4.226,0,0,0,12.6,8.376Zm0,7.744A3.523,3.523,0,1,1,16.122,12.6,3.527,3.527,0,0,1,12.6,16.119Z" transform="translate(-6.132 -6.13)"/>
    <path id="Path_2" data-name="Path 2" class="cls-1" d="M6.467,0A6.466,6.466,0,0,0,1.115,10.1l5.061,7.746a.348.348,0,0,0,.583,0L11.816,10.1A6.467,6.467,0,0,0,6.467,0Zm4.77,9.715-4.77,7.3-4.772-7.3a5.769,5.769,0,1,1,9.542.005Z"/>
  </g>
</svg>
