<svg xmlns="http://www.w3.org/2000/svg" viewBox="2184 1246 20 25.196">
  <defs>
    <style>
      .cls-1 {
        fill: #0a2240;
      }
    </style>
  </defs>
  <g id="Group_18" data-name="Group 18" transform="translate(2184 1246)">
    <path id="Path_20" data-name="Path 20" class="cls-1" d="M17.742,66.881,12.357,61.5l.593-.593a1.032,1.032,0,1,0-.618-.618l-.593.593L6.364,55.5h0a1.2,1.2,0,0,0-1.017-.34,1.173,1.173,0,0,0-.867.606h0a9.583,9.583,0,0,0,.032,9.258,2.64,2.64,0,0,0-.543,2.261,2.611,2.611,0,0,0,.452.977l-4.29,8.42h0a1.172,1.172,0,0,0,.044,1.152,1.207,1.207,0,0,0,1.02.579H9.97a1.2,1.2,0,0,0,1.053-1.73h0L7.234,69.231a2.647,2.647,0,0,0,.972-.509,9.525,9.525,0,0,0,3.307,1.113,9.687,9.687,0,0,0,1.372.1,9.487,9.487,0,0,0,4.579-1.179,1.2,1.2,0,0,0,.607-.878,1.161,1.161,0,0,0-.329-.995ZM13.3,59.775a.158.158,0,1,1-.086.29l-.022-.024-.024-.022a.158.158,0,0,1,.132-.245ZM9.962,77.223l-.005.006H1.2l-.009-.007,4.163-8.17a2.6,2.6,0,0,0,.56.205L9.96,77.221ZM6.208,68.106a1.432,1.432,0,0,1-.987-1.991,9.741,9.741,0,0,0,1.9,1.9A1.439,1.439,0,0,1,6.208,68.106Zm6.677.627a8.457,8.457,0,0,1-4.437-1.255l-.04-.025a8.261,8.261,0,0,1-2.626-2.626c-.008-.014-.017-.028-.026-.042a8.429,8.429,0,0,1-.234-8.443h0L16.892,67.712h0A8.329,8.329,0,0,1,12.885,68.733Z" transform="translate(0 -53.223)"/>
    <path id="Path_21" data-name="Path 21" class="cls-1" d="M342.937,97.522a4.026,4.026,0,0,1,3.19,3.189.524.524,0,0,0,1.029-.2,5.09,5.09,0,0,0-4.018-4.017.524.524,0,1,0-.2,1.029Z" transform="translate(-330.539 -93.109)"/>
    <path id="Path_22" data-name="Path 22" class="cls-1" d="M355.921,50.891a6.757,6.757,0,0,0-3.492-1.859.524.524,0,0,0-.2,1.029,5.71,5.71,0,0,1,4.524,4.523.524.524,0,1,0,1.029-.2A6.758,6.758,0,0,0,355.921,50.891Z" transform="translate(-339.505 -47.307)"/>
    <path id="Path_23" data-name="Path 23" class="cls-1" d="M368.756,6.739A8.527,8.527,0,0,0,362.025.01a.524.524,0,1,0-.2,1.029,7.45,7.45,0,0,1,5.9,5.9.524.524,0,1,0,1.029-.2Z" transform="translate(-348.765 0)"/>
  </g>
</svg>
