<svg xmlns="http://www.w3.org/2000/svg" viewBox="2184 1007 20 20.098">
  <defs>
    <style>
      .cls-1 {
        fill: #0a2240;
      }
    </style>
  </defs>
  <g id="Group_15" data-name="Group 15" transform="translate(2184 1007)">
    <path id="Path_19" data-name="Path 19" class="cls-1" d="M19.834,11.336l-1.249-1.178,1.169-1.239a.531.531,0,0,0-.772-.729L17.623,9.63,16.208,9.58l2.726-2.89a.531.531,0,1,0-.772-.729L14.795,9.531l-1.1-.038a5.635,5.635,0,0,1-1.308-2.32c0-.007.012-.012.016-.02L13.12,6.01l4.688-1.034a.531.531,0,0,0-.229-1.037l-3.672.81.7-1.127,1.978-.592a.531.531,0,0,0-.3-1.017L14.641,2.5,14.152.873a.531.531,0,1,0-1.017.3l.567,1.9-.751,1.2L11.813.468a.531.531,0,1,0-1.017.3l1.407,4.7-.613.981a.521.521,0,0,0-.062.023A2.725,2.725,0,0,1,8.7,6.52l0-.01L8.068,5.323,9.586.7A.531.531,0,1,0,8.578.366l-1.2,3.659-.633-1.19L7.22.825A.531.531,0,0,0,6.187.58l-.4,1.671L4.133,1.858a.531.531,0,1,0-.245,1.033l1.925.456L6.479,4.6,2.613,3.682a.531.531,0,1,0-.245,1.033L7.143,5.846l.619,1.163a.524.524,0,0,0,.065.089A3.4,3.4,0,0,1,6.47,9.511L5.206,9.467l-3.4-3.6a.531.531,0,0,0-.772.729L3.7,9.414,2.4,9.369.9,7.952a.531.531,0,0,0-.729.772L1.416,9.9.246,11.142a.531.531,0,1,0,.772.729l1.358-1.439,1.416.049L1.066,13.37a.531.531,0,1,0,.772.729l3.367-3.569,1.292.045a5.251,5.251,0,0,1,1.318,2.35.528.528,0,0,0-.094.109L7,14.183,2.182,15.34a.531.531,0,1,0,.248,1.032L6.2,15.467l-.686,1.1-1.979.592a.531.531,0,0,0,.3,1.017l1.645-.492.489,1.632a.531.531,0,1,0,1.017-.3l-.567-1.9.75-1.2,1.14,3.805a.531.531,0,1,0,1.017-.3l-1.407-4.7.7-1.118a.526.526,0,0,0,.04-.08,3.333,3.333,0,0,1,2.775-.013l.629,1.182-1.341,4.7a.531.531,0,1,0,1.021.291l1.038-3.639.6,1.127-.476,2.009a.531.531,0,1,0,1.033.245l.4-1.67,1.658.393a.531.531,0,1,0,.245-1.033l-1.925-.456L13.647,15.4l3.866.916a.531.531,0,1,0,.245-1.033l-4.775-1.132-.619-1.163c0-.007-.009-.012-.013-.019a6.963,6.963,0,0,1,1.336-2.414l1.107.038,3.464,3.664a.531.531,0,0,0,.771-.729L16.3,10.646l1.3.045,1.5,1.417a.531.531,0,0,0,.729-.772Zm-8.407,1.041a5.092,5.092,0,0,0-1.467-.232,3.928,3.928,0,0,0-1.2.185,6.313,6.313,0,0,0-1.286-2.258A4.4,4.4,0,0,0,8.788,7.74a3.706,3.706,0,0,0,2.648-.062,6.789,6.789,0,0,0,1.305,2.353A8.018,8.018,0,0,0,11.427,12.377Z" transform="translate(0 0)"/>
    <circle id="Ellipse_1" data-name="Ellipse 1" class="cls-1" cx="0.595" cy="0.595" r="0.595" transform="translate(9.389 14.707)"/>
    <circle id="Ellipse_2" data-name="Ellipse 2" class="cls-1" cx="0.595" cy="0.595" r="0.595" transform="translate(13.806 12.095)"/>
    <circle id="Ellipse_3" data-name="Ellipse 3" class="cls-1" cx="0.595" cy="0.595" r="0.595" transform="translate(9.516 4.448)"/>
    <circle id="Ellipse_4" data-name="Ellipse 4" class="cls-1" cx="0.595" cy="0.595" r="0.595" transform="translate(4.94 12.095)"/>
    <circle id="Ellipse_5" data-name="Ellipse 5" class="cls-1" cx="0.595" cy="0.595" r="0.595" transform="translate(5.067 6.902)"/>
    <circle id="Ellipse_6" data-name="Ellipse 6" class="cls-1" cx="0.595" cy="0.595" r="0.595" transform="translate(13.869 6.839)"/>
    <circle id="Ellipse_7" data-name="Ellipse 7" class="cls-1" cx="0.595" cy="0.595" r="0.595" transform="translate(9.563 9.524)"/>
  </g>
</svg>
