<svg xmlns="http://www.w3.org/2000/svg" viewBox="527.85 830.85 14.163 18.3">
  <defs>
    <style>
      .cls-1 {
        fill: #0a2240;
        stroke: #0a2240;
        stroke-width: 0.3px;
      }
    </style>
  </defs>
  <g id="Group_274" data-name="Group 274" transform="translate(528 831)">
    <g id="Group_273" data-name="Group 273">
      <path id="Path_43" data-name="Path 43" class="cls-1" d="M13.756,3.259a.387.387,0,0,0-.423-.105,11.914,11.914,0,0,1-4.392.675V1.223c0-.254-.1-.707-.849-.889C6.365-.087,2.224,1.062.774,1.493V.387A.387.387,0,0,0,0,.387V17.613a.387.387,0,0,0,.774,0V10.05A30.431,30.431,0,0,1,7.03,8.774v2.469s0,.007,0,.011c.01.336.2.777,1.027.968a6.687,6.687,0,0,0,1.487.155,13.188,13.188,0,0,0,4.057-.75.387.387,0,0,0,.212-.534l-1.851-3.75,1.849-3.65A.387.387,0,0,0,13.756,3.259ZM.774,2.3C2.5,1.774,6.449.73,7.908,1.086a.521.521,0,0,1,.257.111.082.082,0,0,1,0,.02V8.1l-.082-.019c-1.73-.388-5.864.74-7.31,1.164V2.3ZM7.8,9.745V8.814c.038.006.075.012.11.02l.186.043A8.319,8.319,0,0,1,7.8,9.745Zm3.38-2.581a.387.387,0,0,0,0,.346l1.74,3.525a10.12,10.12,0,0,1-4.692.431,1.294,1.294,0,0,1-.326-.115,9.461,9.461,0,0,0,1.03-2.643.389.389,0,0,0,.005-.063V4.605a11.576,11.576,0,0,0,3.767-.446Z"/>
    </g>
  </g>
</svg>
