<?xml version="1.0" encoding="utf-8"?>
<!-- Generator: Adobe Illustrator 21.1.0, SVG Export Plug-In . SVG Version: 6.00 Build 0)  -->
<svg version="1.1" id="Layer_1" xmlns="http://www.w3.org/2000/svg" xmlns:xlink="http://www.w3.org/1999/xlink" x="0px" y="0px"
	 viewBox="0 0 12.2 12" style="enable-background:new 0 0 12.2 12;" xml:space="preserve">
<style type="text/css">
	.st0{fill:#FFFFFF;}
</style>
<path id="_x35__1_" class="st0" d="M11.1,0H1.2C0.6,0,0,0.5,0,1.2v7.4c0,0.6,0.5,1.1,1.2,1.1c0,0,0,0,0,0h8.3l1.8,2.1
	c0.1,0.1,0.2,0.2,0.4,0.2c0.1,0,0.1,0,0.2,0c0.2-0.1,0.3-0.2,0.3-0.4V1.2C12.2,0.6,11.8,0,11.1,0C11.1,0,11.1,0,11.1,0z M11.3,10.3
	l-1.2-1.3C10,8.8,9.9,8.8,9.7,8.8H1.2C1.1,8.8,1,8.7,1,8.6V1.2C1,1.1,1.1,1,1.2,1h9.9c0,0,0.2,0,0.2,0.2V10.3z M6.1,4.2
	c-0.4,0-0.7,0.3-0.7,0.7c0,0.4,0.3,0.7,0.7,0.7c0.4,0,0.7-0.3,0.7-0.7l0,0C6.8,4.5,6.4,4.2,6.1,4.2z M3.2,4.2
	c-0.4,0-0.7,0.3-0.7,0.7c0,0.4,0.3,0.7,0.7,0.7s0.7-0.3,0.7-0.7l0,0C3.9,4.5,3.6,4.2,3.2,4.2C3.2,4.2,3.2,4.2,3.2,4.2z M8.9,4.2
	c-0.4,0-0.7,0.3-0.7,0.7c0,0.4,0.3,0.7,0.7,0.7s0.7-0.3,0.7-0.7l0,0C9.6,4.5,9.3,4.2,8.9,4.2C8.9,4.2,8.9,4.2,8.9,4.2L8.9,4.2z"/>
</svg>
