<svg xmlns="http://www.w3.org/2000/svg" viewBox="696.713 950 12.215 12">
  <defs>
    <style>
      .cls-1 {
        fill: #31a27e;
      }
    </style>
  </defs>
  <path id="_x35__1_" class="cls-1" d="M11.094,0H1.215A1.23,1.23,0,0,0,0,1.208V8.6A1.146,1.146,0,0,0,1.215,9.714H9.5l1.841,2.113A.49.49,0,0,0,11.7,12a.564.564,0,0,0,.185-.026.49.49,0,0,0,.327-.445V1.208A1.152,1.152,0,0,0,11.094,0Zm.159,10.253L10.1,8.934a.534.534,0,0,0-.377-.182h-8.5c-.141,0-.253-.059-.253-.153V1.208A.276.276,0,0,1,1.215.962h9.879c.038,0,.159.037.159.246ZM6.059,4.17a.7.7,0,1,0,.7.7A.7.7,0,0,0,6.059,4.17Zm-2.87,0a.7.7,0,1,0,.7.7A.7.7,0,0,0,3.189,4.17Zm5.74,0a.7.7,0,1,0,.7.7A.7.7,0,0,0,8.928,4.17Z" transform="translate(696.713 950)"/>
</svg>
