<svg xmlns="http://www.w3.org/2000/svg" viewBox="3336.8 1039.771 18.259 18.4">
  <defs>
    <style>
      .cls-1 {
        fill: #0a2240;
        stroke: #0a2240;
        stroke-width: 0.4px;
      }
    </style>
  </defs>
  <g id="Group_348" data-name="Group 348" transform="translate(3337 1039.971)">
    <path id="Path_46" data-name="Path 46" class="cls-1" d="M.442,3.112H4.067a2.67,2.67,0,0,0,5.267,0h8.083a.442.442,0,0,0,0-.883H9.334a2.67,2.67,0,0,0-5.267,0H.442a.442.442,0,0,0,0,.883ZM6.7.883A1.787,1.787,0,1,1,4.913,2.67,1.789,1.789,0,0,1,6.7.883Z"/>
    <path id="Path_47" data-name="Path 47" class="cls-1" d="M17.417,144.964H15.239a2.67,2.67,0,0,0-5.267,0H.442a.442.442,0,0,0,0,.883H9.973a2.67,2.67,0,0,0,5.267,0h2.178a.442.442,0,0,0,0-.883Zm-3.024.443a1.787,1.787,0,0,1-3.574,0v0a1.787,1.787,0,0,1,3.574,0h0Z" transform="translate(0 -136.406)"/>
    <path id="Path_48" data-name="Path 48" class="cls-1" d="M17.417,287.7H7.887a2.67,2.67,0,0,0-5.267,0H.442a.442.442,0,1,0,0,.883H2.62a2.67,2.67,0,0,0,5.267,0h9.531a.442.442,0,1,0,0-.883Zm-10.377.443a1.787,1.787,0,0,1-3.574,0h0a1.787,1.787,0,0,1,3.574,0v0Z" transform="translate(0 -272.812)"/>
  </g>
</svg>
