<svg xmlns="http://www.w3.org/2000/svg" viewBox="1769.85 1174.85 19.578 19.578">
  <defs>
    <style>
      .cls-1 {
        fill: #0a2240;
        stroke: #0a2240;
        stroke-width: 0.3px;
      }
    </style>
  </defs>
  <g id="XMLID_1_" transform="translate(1770 1175)">
    <path id="XMLID_9_" class="cls-1" d="M307.092,376.775a.964.964,0,1,0,.964.964.965.965,0,0,0-.964-.964Zm0,1.285a.321.321,0,1,1,.321-.321.322.322,0,0,1-.321.321Zm0,0" transform="translate(-297.774 -366.493)"/>
    <path id="XMLID_5_" class="cls-1" d="M196.1,195.778v-2.249a.643.643,0,0,0,.643-.643V191.6a.643.643,0,0,0-.643-.643h-1.285V188.71a.321.321,0,0,0-.643,0v2.249h-1.285V188.71a.321.321,0,1,0-.643,0v2.249h-1.285V188.71a.321.321,0,1,0-.643,0v2.249h-1.285a.643.643,0,0,0-.643.643v1.285a.643.643,0,0,0,.643.643v2.249a1.608,1.608,0,0,0,1.607,1.607h3.856a1.608,1.608,0,0,0,1.606-1.607Zm-6.426,0v-2.57a.321.321,0,0,0-.321-.321h-.321V191.6H196.1v1.285h-.321a.321.321,0,0,0-.321.321v2.57a.965.965,0,0,1-.964.964h-3.856a.965.965,0,0,1-.964-.964Zm0,0" transform="translate(-183.247 -183.247)"/>
    <path id="XMLID_2_" class="cls-1" d="M9.639,0a9.638,9.638,0,0,0-6.8,16.472,1.183,1.183,0,0,0,.732.279.93.93,0,0,0,.673-.295.875.875,0,0,0,.279-.65,1.091,1.091,0,0,0-.339-.713A7.711,7.711,0,1,1,17.35,9.639V14.78a2.573,2.573,0,0,1-2.57,2.57H12.852a2.574,2.574,0,0,1-2.57-2.571.321.321,0,0,0-.643,0,3.217,3.217,0,0,0,3.213,3.214H14.78a3.217,3.217,0,0,0,3.213-3.213V9.639A8.354,8.354,0,1,0,3.744,15.557a.472.472,0,0,1,.139.265A.239.239,0,0,1,3.792,16a.379.379,0,0,1-.514,0A9,9,0,1,1,18.636,9.639V14.78a3.878,3.878,0,0,1-3.856,3.856H12.852A3.878,3.878,0,0,1,9,14.777a.336.336,0,0,0-.323-.319.321.321,0,0,0-.319.323,4.523,4.523,0,0,0,4.5,4.5h1.93a4.523,4.523,0,0,0,4.5-4.5V9.639A9.65,9.65,0,0,0,9.639,0Zm0,0"/>
  </g>
</svg>
