<svg xmlns="http://www.w3.org/2000/svg" viewBox="259.5 830.5 19 19">
  <defs>
    <style>
      .cls-1 {
        fill: none;
        stroke: #0a2240;
        stroke-miterlimit: 22.926;
        fill-rule: evenodd;
      }
    </style>
  </defs>
  <path id="Path_42" data-name="Path 42" class="cls-1" d="M14.868,8.646a.709.709,0,1,1-.709.709.709.709,0,0,1,.709-.709Zm-4.029,4.64a.724.724,0,1,1-.724.724.724.724,0,0,1,.724-.724ZM7.785,3.964A1.077,1.077,0,1,1,6.709,5.041,1.077,1.077,0,0,1,7.785,3.964ZM9.354.354c-3.2,1.183-5.514,4.82-5.514,9s2.319,7.816,5.514,9M8.161,3.559A24,24,0,0,1,9.354.354m0,17.991A21.129,21.129,0,0,1,7.509,6.6m7.307,3.835c-.359,3.715-2.546,6.841-5.462,7.922m0-18c2.924,1.083,5.112,4.218,5.464,7.944m-3.757,4.643A20.879,20.879,0,0,0,9.354.354m0,17.991a24.333,24.333,0,0,0,1.206-3.264m1.339-1a34.028,34.028,0,0,1,4.7.707m-14.491,0a32.988,32.988,0,0,1,7.643-.8M9.3,5.077a33.532,33.532,0,0,0,7.4-.83M2,4.248a33.494,33.494,0,0,0,4.268.685m9.664,4.421h2.417m-18,0H13.784m-4.43-9a9,9,0,1,1-9,9A9,9,0,0,1,9.354.354Z" transform="translate(259.646 830.646)"/>
</svg>
