<svg xmlns="http://www.w3.org/2000/svg" viewBox="1976.5 1140.5 21 25.738">
  <defs>
    <style>
      .cls-1 {
        fill: none;
        stroke: #0a2240;
        stroke-miterlimit: 10;
      }
    </style>
  </defs>
  <g id="Group_13" data-name="Group 13" transform="translate(1975 1139)">
    <path id="Path_12" data-name="Path 12" class="cls-1" d="M12.133,26.738c-.044,0-.089,0-.133,0s-.088,0-.133,0c-1.571,0-4.092-1.494-5.77-2.881C3.455,21.672,2,19.14,2,16.727V8.022A3.386,3.386,0,0,1,5.106,4.681a8.943,8.943,0,0,0,4.7-1.62A3.316,3.316,0,0,1,12,2a3.315,3.315,0,0,1,2.19,1.061,8.943,8.943,0,0,0,4.7,1.62A3.386,3.386,0,0,1,22,8.022v8.706c0,2.413-1.455,4.945-4.1,7.13C16.224,25.245,13.7,26.738,12.133,26.738Z" transform="translate(0)"/>
    <path id="Path_13" data-name="Path 13" class="cls-1" d="M15.628,16.668A1.768,1.768,0,0,0,14,18.382v8.706c0,4.62,7,8.609,8.365,8.365,1.362.243,8.365-3.745,8.365-8.365V18.382a1.768,1.768,0,0,0-1.632-1.714,10.4,10.4,0,0,1-5.611-2.009c-1.025-.885-1.219-.885-2.244,0A10.4,10.4,0,0,1,15.628,16.668Z" transform="translate(-10.362 -10.361)"/>
    <path id="Path_14" data-name="Path 14" class="cls-1" d="M15.628,16.668A1.768,1.768,0,0,0,14,18.382v8.706c0,4.62,7,8.609,8.365,8.365,1.362.243,8.365-3.745,8.365-8.365V18.382a1.768,1.768,0,0,0-1.632-1.714,10.4,10.4,0,0,1-5.611-2.009c-1.025-.885-1.219-.885-2.244,0A10.4,10.4,0,0,1,15.628,16.668Z" transform="translate(-10.362 -10.361)"/>
    <path id="Path_15" data-name="Path 15" class="cls-1" d="M82.122,16.668a10.4,10.4,0,0,1-5.611-2.009C76,14.216,75.693,14,75.389,14V24.73h8.365V18.382A1.768,1.768,0,0,0,82.122,16.668Z" transform="translate(-63.389 -10.361)"/>
    <path id="Path_16" data-name="Path 16" class="cls-1" d="M75.389,92.774V103.5c1.363.243,8.365-3.745,8.365-8.365V92.774Z" transform="translate(-63.389 -78.405)"/>
    <path id="Path_17" data-name="Path 17" class="cls-1" d="M22.362,14c-.3,0-.61.221-1.122.664a10.4,10.4,0,0,1-5.612,2.009A1.768,1.768,0,0,0,14,18.382V24.73h8.365Z" transform="translate(-10.362 -10.361)"/>
    <path id="Path_18" data-name="Path 18" class="cls-1" d="M22.362,92.774H14v2.358c0,4.62,7,8.609,8.365,8.365h0V92.774Z" transform="translate(-10.362 -78.405)"/>
  </g>
</svg>
