<svg xmlns="http://www.w3.org/2000/svg" viewBox="1770 1007 20 22.52">
  <defs>
    <style>
      .cls-1 {
        fill: #0a2240;
      }
    </style>
  </defs>
  <path id="Path_8" data-name="Path 8" class="cls-1" d="M19.765,5.349,10.188.057a.459.459,0,0,0-.441,0L.235,5.312a.456.456,0,0,0-.235.4l.005,11.1a.454.454,0,0,0,.236.4L9.77,22.463a.456.456,0,0,0,.22.057.461.461,0,0,0,.221-.058l9.553-5.3a.453.453,0,0,0,.235-.4V5.748A.457.457,0,0,0,19.765,5.349ZM10,16.011,6.138,13.876l3.789-2.093,3.862,2.134ZM5.15,8.249l.008.014H5.142Zm.476.406,3.909-2.16v4.462l-3.909,2.16V8.655Zm4.821,2.373V6.522L14.336,8.67v4.506Zm4.3-3.174L10.91,5.735l3.834-2.118,3.835,2.119ZM5.206,7.844,1.373,5.726,5.19,3.617,9.023,5.735ZM.913,6.514l3.8,2.1v4.474l-3.8-2.1ZM9.535,16.8v4.5L5.626,19.138v-4.5Zm.912.01,3.889-2.149v4.474l-3.889,2.156Zm4.8-8.188L19.088,6.5v4.492l-3.84,2.122ZM9.967.977,13.8,3.1,9.967,5.214,6.134,3.1ZM.915,12.033l3.8,2.1v4.5l-3.8-2.091Zm14.333,6.593V14.153l3.84-2.122V16.5Z" transform="translate(1770 1007)"/>
</svg>
