<?xml version="1.0" encoding="utf-8"?>
<!-- Generator: Adobe Illustrator 22.0.1, SVG Export Plug-In . SVG Version: 6.00 Build 0)  -->
<svg version="1.1" id="Layer_1" xmlns="http://www.w3.org/2000/svg" xmlns:xlink="http://www.w3.org/1999/xlink" x="0px" y="0px"
	 viewBox="0 0 203 77" style="enable-background:new 0 0 203 77;" xml:space="preserve">
<style type="text/css">
	.st0{fill:#005496;}
</style>
<g>
	<path class="st0" d="M70.3,48.2l2.8-3c-1.5,0.5-3.5,1-5.3,1c-4.5,0-5.8-2.4-5.8-4.5c0-3.2,2.8-6.4,7.1-6.4c2.7,0,4.1,1,4.8,1.8
		l1.8-3.9c-2.5-1.6-6.2-1.6-6.9-1.6c-8.6,0-13,5-13,10.4c0,4.4,3.3,7.9,9.4,7.9c1.6,0,3.5-0.5,4.2-0.6L70.3,48.2z"/>
	<path class="st0" d="M53.5,48.2l2.8-3c-1.5,0.5-3.5,1-5.3,1c-4.5,0-5.8-2.4-5.8-4.5c0-3.2,2.8-6.4,7.1-6.4c2.7,0,4.1,1,4.8,1.8
		l1.8-3.9c-2.5-1.6-6.2-1.6-6.9-1.6c-8.6,0-13,5-13,10.4c0,4.4,3.3,7.9,9.4,7.9c1.6,0,3.5-0.5,4.2-0.6L53.5,48.2z"/>
	<path class="st0" d="M33.3,32h-9.1l-5.4,17.3h6.3l1.8-5.6c1,0.1,2.3,0.3,3.5,0.3c1.7,0,4.2-0.1,6.4-1.6c1.7-1.1,2.9-3.2,3-5.2
		C40,33.8,36.4,32,33.3,32 M33.5,38.1c-0.2,0.7-1,1.9-2.8,2c-0.8,0.1-1.9,0.1-2.6-0.2l1.2-4.1h2.1C32.6,35.9,33.9,36.7,33.5,38.1"/>
	<polygon class="st0" points="93.8,49.3 87.2,49.3 87,41.1 82.7,49.3 75.3,49.3 75.7,32 81.7,32 81,42 87.1,32 91.6,32 92.3,42.1 
		96.8,32 103.3,32 	"/>
	<path class="st0" d="M111.8,39.5c-0.3-1-0.8-1.9-1.9-1.9c-0.9,0-1.7,0.7-1.7,1.6c0,2.7,6.5,0.9,6.5,6.1c0,1.7-1.3,4.2-4.7,4.2
		c-2.6,0-4.6-1.3-5-4l2.8-0.4c0.3,1.2,0.9,2.1,2.2,2.1c1.1,0,2-0.6,2-1.8c0-2.8-6.5-1.2-6.5-5.9c0-2.5,2.1-4.3,4.5-4.3
		c2.4,0,4.1,1.5,4.4,3.9L111.8,39.5z"/>
	<path class="st0" d="M115.7,44.3c0-2.7,1.5-5.2,4.4-5.2c2.9,0,4.4,2.6,4.4,5.2c0,2.6-1.5,5.2-4.4,5.2
		C117.2,49.6,115.7,47,115.7,44.3 M121.8,44.3c0-1.3-0.3-3.3-1.7-3.3c-1.4,0-1.7,2-1.7,3.3c0,1.3,0.3,3.3,1.7,3.3
		C121.5,47.6,121.8,45.6,121.8,44.3"/>
	<rect x="125.8" y="35.4" class="st0" width="2.6" height="13.9"/>
	<path class="st0" d="M136,48.3c-0.8,0.7-1.9,1.3-3,1.3c-1.1,0-2.6-0.7-2.6-3.1v-7.1h2.6v6c0,0.8-0.1,2.1,1.1,2.1
		c0.8,0,1.4-0.6,1.9-1.1v-7h2.6v10H136V48.3z"/>
	<path class="st0" d="M143.4,39.3h2.1v2.2h-2.1v5.1c0,0.5,0.1,1,1,1c0.4,0,0.7-0.2,1.1-0.4v2c-0.6,0.2-1.1,0.3-1.7,0.3
		c-1.6,0-3-0.9-3-3.1v-4.9h-1.2v-2.2h1.2v-2.5h2.6V39.3z"/>
	<path class="st0" d="M149.1,37.9h-2.6v-2.4h2.6V37.9z M149.1,49.3h-2.6v-10h2.6V49.3z"/>
	<path class="st0" d="M150.4,44.3c0-2.7,1.5-5.2,4.4-5.2c2.9,0,4.4,2.6,4.4,5.2c0,2.6-1.5,5.2-4.4,5.2
		C151.9,49.6,150.4,47,150.4,44.3 M156.5,44.3c0-1.3-0.3-3.3-1.7-3.3c-1.4,0-1.7,2-1.7,3.3c0,1.3,0.3,3.3,1.7,3.3
		C156.2,47.6,156.5,45.6,156.5,44.3"/>
	<path class="st0" d="M163.1,40.4c0.8-0.7,1.9-1.3,3-1.3c1.1,0,2.6,0.7,2.6,3.1v7.1h-2.6v-6c0-0.8,0.1-2.1-1.1-2.1
		c-0.8,0-1.4,0.6-1.9,1.1v7h-2.6v-10h2.6V40.4z"/>
	<path class="st0" d="M174.8,42.3c-0.1-0.7-0.4-1.2-1.1-1.2c-0.6,0-1.1,0.5-1.1,1.1c0,1.7,4.8,0.5,4.8,4.2c0,2.1-1.8,3.2-3.8,3.2
		c-2.1,0-3.4-1-3.6-3.1l2.5-0.3c0.1,0.7,0.4,1.4,1.2,1.4c0.7,0,1.3-0.3,1.3-1.1c0-1.8-4.8-0.3-4.8-4.2c0-2,1.7-3.2,3.7-3.2
		c1.8,0,3.2,1.1,3.5,2.8L174.8,42.3z"/>
	<path class="st0" d="M178.5,33.2c0-1.9,1.5-3.5,3.5-3.5c1.9,0,3.5,1.6,3.5,3.5c0,1.9-1.5,3.5-3.5,3.5
		C180,36.7,178.5,35.1,178.5,33.2 M184.9,33.2c0-1.6-1.3-2.9-2.9-2.9c-1.7,0-2.9,1.3-2.9,2.9c0,1.7,1.3,2.9,2.9,2.9
		C183.6,36.1,184.9,34.9,184.9,33.2 M182,31.1c1.2,0,1.4,0.7,1.4,1.2c0,0.5-0.4,1-1,1.1l0.9,2h-0.6l-0.8-1.9h-0.8v1.9h-0.5v-4.3H182
		z M181,33h0.7c0.9,0,1-0.3,1-0.7c0-0.6-0.4-0.7-0.9-0.7H181V33z"/>
</g>
</svg>
